<?xml version="1.0" encoding="UTF-8"?>
<svg xmlns="http://www.w3.org/2000/svg" width="63" height="70" viewBox="0 0 63 70" fill="none">
  <path d="M62.1815 10.9208L48.5594 0.207789C48.389 0.0730743 48.1787 -0.000630372 47.962 4.06189e-06H8.80604C8.03143 0.00127488 7.28859 0.309462 6.74088 0.857222C6.19312 1.40498 5.88493 2.14782 5.8843 2.92239V21.9587C2.2267 24.2171 0 28.2083 0 32.5065C0 36.8054 2.2267 40.7966 5.8843 43.0551V67.0725C5.8843 67.8483 6.19185 68.5918 6.73961 69.1409C7.28737 69.6899 8.03085 69.9987 8.80608 70H59.6291C60.4037 69.9987 61.1466 69.6905 61.6943 69.1422C62.2421 68.5938 62.5496 67.8503 62.5496 67.0757V11.6749C62.5496 11.3801 62.413 11.1018 62.1804 10.92L62.1815 10.9208ZM48.9267 2.94074L58.8549 10.7485H48.9267V2.94074ZM1.92486 32.507C1.92867 29.8908 2.9079 27.37 4.67131 25.437C6.43471 23.5039 8.85515 22.2978 11.4604 22.0551V32.507C11.4604 32.7618 11.5614 33.0058 11.7413 33.1857C11.9211 33.3655 12.1651 33.4665 12.4193 33.4665H22.8839C22.5547 37.0905 20.372 40.2862 17.1153 41.9117C13.8585 43.5365 9.99317 43.3599 6.89843 41.444C3.80386 39.5281 1.92226 36.147 1.92486 32.507ZM13.4398 22.0551C13.5491 22.0659 13.6565 22.0856 13.7652 22.0989C13.9895 22.1275 14.2132 22.1587 14.4362 22.2013C14.5627 22.2254 14.6866 22.2578 14.8111 22.2864C15.0088 22.3322 15.2051 22.3824 15.3983 22.4376C15.526 22.4751 15.6525 22.5183 15.7821 22.5603C15.967 22.6226 16.15 22.6886 16.3305 22.7617C16.4544 22.8107 16.5771 22.8621 16.6978 22.9168C16.8751 22.9956 17.0498 23.0807 17.2214 23.1691C17.3377 23.2288 17.4527 23.2879 17.5658 23.3514C17.7406 23.4474 17.909 23.5548 18.0767 23.6622C18.179 23.7283 18.2839 23.7918 18.3843 23.8604C18.5648 23.985 18.7382 24.1184 18.9098 24.2538C18.9892 24.3161 19.0712 24.3745 19.1488 24.4387L19.1481 24.44C19.6374 24.8498 20.0879 25.3036 20.4953 25.7947C20.5594 25.8716 20.6179 25.9542 20.6802 26.0337C20.8155 26.2053 20.949 26.3787 21.0735 26.5592C21.1428 26.6552 21.2057 26.7632 21.2718 26.8661C21.3792 27.0339 21.4847 27.2036 21.5825 27.377C21.6461 27.4895 21.7052 27.6045 21.7649 27.7195C21.8539 27.8924 21.9384 28.0678 22.0178 28.2457C22.0718 28.3658 22.1233 28.4865 22.1722 28.6092C22.246 28.7916 22.3133 28.9765 22.3762 29.1646C22.4175 29.2872 22.4595 29.4099 22.4963 29.5344C22.5548 29.7327 22.605 29.9341 22.6514 30.1368C22.6793 30.2569 22.7098 30.3745 22.734 30.4946C22.7778 30.7259 22.8115 30.9603 22.8407 31.1967C22.8534 31.2927 22.8712 31.3886 22.8808 31.4846V31.55L13.382 31.5494V22.0552L13.4398 22.0551ZM59.6283 68.0776H8.80521C8.25238 68.0757 7.80502 67.6271 7.80502 67.0742V44.0378C11.6349 45.58 15.9814 45.1199 19.4033 42.8094C22.8252 40.4983 24.8759 36.6391 24.8759 32.5101C24.8759 28.3809 22.8253 24.5213 19.4033 22.2108C15.9814 19.8997 11.6349 19.4396 7.80502 20.9825V2.92714C7.80566 2.37493 8.25301 1.92694 8.80521 1.92567H47.003V11.7072C47.003 11.9614 47.1041 12.2054 47.2839 12.3852C47.4638 12.5651 47.7078 12.6661 47.9626 12.6661H60.6202V67.0745C60.6208 67.6242 60.1786 68.0722 59.6289 68.0779L59.6283 68.0776ZM13.8465 7.04829C13.8465 6.51896 14.2761 6.0894 14.8054 6.0894H21.6874C22.2174 6.0894 22.6469 6.51896 22.6469 7.04829C22.6469 7.57826 22.2174 8.00718 21.6874 8.00718H14.8074C14.5526 8.00782 14.3085 7.90678 14.1281 7.72694C13.9476 7.5471 13.8465 7.30311 13.8465 7.04829ZM34.0947 15.6987H14.8079C14.2786 15.6987 13.849 15.2698 13.849 14.7398C13.849 14.2105 14.2786 13.7809 14.8079 13.7809H34.0947C34.6241 13.7809 35.0536 14.2105 35.0536 14.7398C35.0536 15.2698 34.6241 15.6987 34.0947 15.6987ZM50.8926 32.6999H43.3866C42.8573 32.6999 42.4277 33.1295 42.4277 33.6588V62.1205H38.9315V41.0134C38.9315 40.7592 38.8305 40.5152 38.6506 40.3353C38.4708 40.1555 38.2268 40.0545 37.9726 40.0545H30.4654C29.9355 40.0545 29.5065 40.484 29.5065 41.0134V62.1221H26.011V48.5438C26.011 48.2896 25.9099 48.0456 25.7301 47.8657C25.5503 47.6859 25.3062 47.5849 25.0521 47.5849H17.5449C17.015 47.5849 16.586 48.0138 16.586 48.5437V63.0829C16.586 63.337 16.6871 63.5811 16.8669 63.7609C17.0467 63.9407 17.2908 64.0418 17.5449 64.0418H50.8934C51.1476 64.0418 51.3916 63.9407 51.5714 63.7609C51.7513 63.5811 51.8523 63.337 51.8523 63.0829V33.6581C51.8523 33.404 51.7513 33.1599 51.5714 32.9801C51.3916 32.8003 51.1476 32.6992 50.8934 32.6992L50.8926 32.6999ZM21.2906 62.1214H18.5098V49.504H24.0858V62.1214H21.2906ZM31.4267 62.1214V41.9724H37.0117V62.1214H31.4267ZM49.9343 62.1214H44.348V34.6179H49.9317L49.9343 62.1214Z" fill="#783CF0"></path>
</svg>
