<?xml version="1.0" encoding="UTF-8"?>
<svg xmlns="http://www.w3.org/2000/svg" width="1592" height="644" viewBox="0 0 1592 644" fill="none">
  <mask id="mask0_1_8687" style="mask-type:alpha" maskUnits="userSpaceOnUse" x="0" y="0" width="1592" height="644">
    <rect width="1592" height="644" fill="#D9D9D9"></rect>
  </mask>
  <g mask="url(#mask0_1_8687)">
    <g opacity="0.5">
      <g style="mix-blend-mode:screen">
        <path d="M-7.42205 860.7L-10.3936 860.049C5.19664 789.613 35.7665 739.929 78.0595 716.409C109.647 698.831 147.503 696.308 184.626 709.329C203.392 715.921 222.523 724.995 241.004 733.744C293.554 758.647 347.855 784.404 399.714 755.717C444.938 730.692 484.097 666.481 521.912 604.346C563.432 536.228 606.335 465.751 657.624 447.277C713.309 427.217 768.017 471.773 820.894 514.866C871.735 556.289 924.326 599.137 977.162 583.797C1047.7 563.329 1102.7 446.586 1155.94 333.708C1211.18 216.517 1268.33 95.298 1343.31 82.8465C1379.78 76.7835 1415.97 98.2685 1450.93 119.021C1488.59 141.361 1527.54 164.514 1565.97 152.022C1590.43 144.087 1613.88 121.829 1636.59 100.303C1659.26 78.7774 1682.71 56.5599 1707.54 48.1775C1753.05 32.7963 1803.61 64.2099 1849.93 136.681C1891.08 201.055 1923.97 287.523 1955.8 371.103L1952.95 372.202C1921.16 288.744 1888.31 202.438 1847.36 138.349C1801.9 67.1804 1752.56 36.2143 1708.56 51.1073C1684.38 59.2863 1661.18 81.3002 1638.75 102.582C1615.83 124.352 1592.1 146.813 1566.98 154.992C1527.3 167.891 1487.73 144.412 1449.47 121.707C1414.95 101.239 1379.25 80.0388 1343.88 85.939C1270.49 98.1464 1213.7 218.592 1158.79 335.092C1105.3 448.579 1049.98 565.933 978.139 586.808C923.757 602.596 870.554 559.219 819.103 517.307C766.878 474.744 712.902 430.757 658.805 450.248C608.533 468.355 565.915 538.344 524.68 606.014C486.62 668.475 447.299 733.052 401.342 758.443C348.1 787.904 293.066 761.821 239.823 736.592C221.383 727.843 202.333 718.81 183.731 712.299C147.462 699.563 110.502 702.005 79.6877 719.176C38.1681 742.248 8.12744 791.24 -7.25923 860.822L-7.42205 860.7Z" fill="#783CF0"></path>
      </g>
      <g style="mix-blend-mode:screen">
        <path d="M-17.1099 746.317L-20 745.341C13.2564 646.624 105.699 630.185 174.776 646.095C193.541 650.408 212.632 656.349 231.153 662.127C283.785 678.526 338.208 695.453 390.271 676.532C435.535 660.093 474.612 617.937 512.428 577.205C553.947 532.444 596.892 486.178 648.099 474.052C703.54 460.95 758.167 490.125 810.962 518.406C861.884 545.628 914.516 573.827 967.596 563.695C1038.18 550.226 1093.17 473.645 1146.37 399.587C1201.65 322.599 1258.8 242.967 1333.66 234.828C1369.97 230.881 1406.08 244.92 1441 258.551C1478.74 273.282 1517.81 288.459 1556.4 280.24C1580.95 274.991 1604.39 260.382 1627.11 246.263C1649.78 232.143 1673.23 217.535 1697.97 212.041C1743.28 201.991 1793.71 222.621 1840 270.189C1881.19 312.508 1914.12 369.313 1945.99 424.205L1943.35 425.752C1911.6 370.981 1878.75 314.38 1837.84 272.305C1792.33 225.551 1742.91 205.205 1698.67 215.012C1674.41 220.383 1651.2 234.869 1628.78 248.826C1605.86 263.109 1582.17 277.88 1557.09 283.21C1517.61 291.633 1478.12 276.252 1439.94 261.4C1405.34 247.931 1369.6 234.014 1334.07 237.88C1260.55 245.896 1203.81 324.959 1148.9 401.418C1095.37 475.965 1040.01 553.075 968.248 566.747C914.109 577.082 860.989 548.639 809.578 521.132C757.271 493.136 703.214 464.246 648.872 477.063C598.56 488.945 555.942 534.886 514.748 579.32C476.688 620.337 437.326 662.778 391.37 679.462C338.33 698.709 283.419 681.618 230.298 665.098C211.858 659.36 192.808 653.419 174.165 649.147C106.309 633.521 15.5359 649.635 -17.0692 746.399L-17.1099 746.317Z" fill="#783CF0"></path>
      </g>
      <g style="mix-blend-mode:screen">
        <path d="M166.593 563.817H146.24V784.364H166.593V563.817Z" fill="#783CF0"></path>
        <path d="M1587.62 214.93H1567.27V439.058H1587.62V214.93Z" fill="#783CF0"></path>
        <path d="M1538.65 283.536H1518.3V350.229H1538.65V283.536Z" fill="#783CF0"></path>
        <path d="M1489.64 238.734H1469.29V330.778H1489.64V238.734Z" fill="#783CF0"></path>
        <path d="M1440.63 178.756H1420.28V362.843H1440.63V178.756Z" fill="#783CF0"></path>
        <path d="M1391.62 152.673H1371.27V323.413H1391.62V152.673Z" fill="#783CF0"></path>
        <path d="M1342.61 164.392H1322.26V361.826H1342.61V164.392Z" fill="#783CF0"></path>
        <path d="M1293.6 104.006H1273.25V349.456H1293.6V104.006Z" fill="#783CF0"></path>
        <path d="M1244.64 149.376H1224.29V352.792H1244.64V149.376Z" fill="#783CF0"></path>
        <path d="M1195.63 253.994H1175.27V366.058H1195.63V253.994Z" fill="#783CF0"></path>
        <path d="M1146.62 199.875H1126.27V363.942H1146.62V199.875Z" fill="#783CF0"></path>
        <path d="M1097.61 173.222H1077.26V461.356H1097.61V173.222Z" fill="#783CF0"></path>
        <path d="M1048.6 161.584H1028.25V599.137H1048.6V161.584Z" fill="#783CF0"></path>
        <path d="M999.63 220.668H979.277V834.292H999.63V220.668Z" fill="#783CF0"></path>
        <path d="M950.62 488.05H930.268V733.499H950.62V488.05Z" fill="#783CF0"></path>
        <path d="M901.611 424.653H881.258V712.788H901.611V424.653Z" fill="#783CF0"></path>
        <path d="M852.603 375.62H832.25V639.747H852.603V375.62Z" fill="#783CF0"></path>
        <path d="M803.593 380.991H783.24V669.126H803.593V380.991Z" fill="#783CF0"></path>
        <path d="M754.624 375.172H734.271V501.437H754.624V375.172Z" fill="#783CF0"></path>
        <path d="M705.614 340.625H685.262V610.082H705.614V340.625Z" fill="#783CF0"></path>
        <path d="M656.607 477.592H636.254V597.631H656.607V477.592Z" fill="#783CF0"></path>
        <path d="M607.597 458.874H587.244V688.332H607.597V458.874Z" fill="#783CF0"></path>
        <path d="M558.587 441.621H538.234V783.102H558.587V441.621Z" fill="#783CF0"></path>
        <path d="M509.618 563.816H489.266V784.363H509.618V563.816Z" fill="#783CF0"></path>
        <path d="M411.599 437.268H391.246V928.167H411.599V437.268Z" fill="#783CF0"></path>
        <path d="M362.589 565.16H342.236V732.361H362.589V565.16Z" fill="#783CF0"></path>
        <path d="M313.579 524.143H293.227V858.543H313.579V524.143Z" fill="#783CF0"></path>
        <path d="M264.571 556.33H244.219V894.271H264.571V556.33Z" fill="#783CF0"></path>
        <path d="M215.603 546.564H195.25V767.111H215.603V546.564Z" fill="#783CF0"></path>
      </g>
      <g style="mix-blend-mode:screen">
        <path d="M451.449 608.415H449.414V690.245H451.449V608.415Z" fill="#783CF0"></path>
        <path d="M166.593 594.864H146.24V661.679H166.593V594.864Z" fill="#783CF0"></path>
        <path d="M1587.62 247.239H1567.27V315.153H1587.62V247.239Z" fill="#783CF0"></path>
        <path d="M1538.65 260.952H1518.3V281.176H1538.65V260.952Z" fill="#783CF0"></path>
        <path d="M1489.64 224.981H1469.29V252.854H1489.64V224.981Z" fill="#783CF0"></path>
        <path d="M1440.63 197.108H1420.28V252.895H1440.63V197.108Z" fill="#783CF0"></path>
        <path d="M1391.62 166.386H1371.27V218.145H1391.62V166.386Z" fill="#783CF0"></path>
        <path d="M1342.61 187.382H1322.26V247.198H1342.61V187.382Z" fill="#783CF0"></path>
        <path d="M1293.6 143.721H1273.25V218.104H1293.6V143.721Z" fill="#783CF0"></path>
        <path d="M1244.64 174.442H1224.29V236.09H1244.64V174.442Z" fill="#783CF0"></path>
        <path d="M1195.63 247.239H1175.27V281.176H1195.63V247.239Z" fill="#783CF0"></path>
        <path d="M1146.62 211.228H1126.27V260.952H1146.62V211.228Z" fill="#783CF0"></path>
        <path d="M1097.61 227.829H1077.26V315.153H1097.61V227.829Z" fill="#783CF0"></path>
        <path d="M1048.6 268.236H1028.25V400.808H1048.6V268.236Z" fill="#783CF0"></path>
        <path d="M999.63 388.723H979.277V574.682H999.63V388.723Z" fill="#783CF0"></path>
        <path d="M950.62 527.765H930.268V602.148H950.62V527.765Z" fill="#783CF0"></path>
        <path d="M901.611 479.261H881.258V566.584H901.611V479.261Z" fill="#783CF0"></path>
        <path d="M852.603 421.846H832.25V501.885H852.603V421.846Z" fill="#783CF0"></path>
        <path d="M803.593 435.599H783.24V522.922H803.593V435.599Z" fill="#783CF0"></path>
        <path d="M754.624 373.342H734.271V411.592H754.624V373.342Z" fill="#783CF0"></path>
        <path d="M705.614 388.723H685.262V470.39H705.614V388.723Z" fill="#783CF0"></path>
        <path d="M656.605 473.604H636.252V509.982H656.605V473.604Z" fill="#783CF0"></path>
        <path d="M607.597 493.015H587.244V562.556H607.597V493.015Z" fill="#783CF0"></path>
        <path d="M558.587 514.825H538.234V618.303H558.587V514.825Z" fill="#783CF0"></path>
        <path d="M509.618 594.864H489.266V661.679H509.618V594.864Z" fill="#783CF0"></path>
        <path d="M460.609 636.898H440.256V661.679H460.609V636.898Z" fill="#783CF0"></path>
        <path d="M411.599 562.515H391.246V711.282H411.599V562.515Z" fill="#783CF0"></path>
        <path d="M362.589 577.611H342.236V628.272H362.589V577.611Z" fill="#783CF0"></path>
        <path d="M313.579 594.864H293.227V696.185H313.579V594.864Z" fill="#783CF0"></path>
        <path d="M264.571 628.272H244.219V730.692H264.571V628.272Z" fill="#783CF0"></path>
        <path d="M215.603 577.611H195.25V644.426H215.603V577.611Z" fill="#783CF0"></path>
      </g>
    </g>
  </g>
</svg>
