<?xml version="1.0" encoding="UTF-8"?>
<svg xmlns="http://www.w3.org/2000/svg" width="163" height="162" viewBox="0 0 163 162" fill="none">
  <path d="M64.6644 14.3256L68.6368 18.5154L70.1592 18.1484L68.9866 13.2837L70.9815 12.8029L73.9129 24.9646L69.7132 25.9769C68.7799 26.2018 67.9531 26.2283 67.2328 26.0563C66.5007 25.8872 65.9112 25.5664 65.464 25.094C65.0052 24.6245 64.6943 24.0514 64.5312 23.3747C64.3399 22.5815 64.3989 21.8019 64.7081 21.0362C65.0084 20.2849 65.6087 19.6773 66.5091 19.2134L62.2845 14.8992L64.6644 14.3256ZM70.543 19.7408L68.3382 20.2723C67.5915 20.4522 67.0766 20.7739 66.7932 21.2371C66.4983 21.7033 66.4267 22.2513 66.5785 22.8812C66.7304 23.5112 67.0351 23.9562 67.4928 24.2162C67.9533 24.4878 68.5627 24.5323 69.3209 24.3495L71.5258 23.818L70.543 19.7408Z" fill="white"></path>
  <path d="M55.5469 29.1343L53.7544 25.9295L49.9841 28.0382L49.1669 26.5772L52.9373 24.4685L51.0658 21.1223L46.8241 23.4946L46.007 22.0336L52.0396 18.6596L58.1549 29.5937L52.1223 32.9677L51.3052 31.5066L55.5469 29.1343Z" fill="white"></path>
  <path d="M28.9068 33.2275L32.1418 33.2785C32.4016 32.7801 32.7552 32.2964 33.2024 31.8275C34.0059 30.9853 34.9425 30.3945 36.0124 30.0552C37.0828 29.7328 38.1684 29.6987 39.2693 29.9528C40.3706 30.2239 41.3641 30.7819 42.2498 31.6267C43.1354 32.4715 43.7353 33.4335 44.0494 34.5125C44.3551 35.6002 44.3679 36.682 44.0878 37.7581C43.808 38.8511 43.2664 39.8187 42.463 40.661C41.6513 41.512 40.7103 42.0986 39.64 42.4209C38.5701 42.7602 37.4888 42.7985 36.3962 42.5357C35.3035 42.2729 34.3144 41.7191 33.4287 40.8743C32.5951 40.0791 32.0136 39.1762 31.6842 38.1654C31.3552 37.1717 31.289 36.1632 31.4855 35.14L27.1053 35.1161L28.9068 33.2275ZM40.7962 33.1506C40.1276 32.5128 39.4129 32.0799 38.6521 31.8517C37.8917 31.6405 37.1489 31.6368 36.4238 31.8406C35.7074 32.0527 35.0634 32.4584 34.4919 33.0575C33.9204 33.6566 33.5456 34.319 33.3675 35.0447C33.1981 35.7786 33.241 36.516 33.4961 37.2569C33.7516 38.0148 34.2137 38.7126 34.8823 39.3504C35.5509 39.9881 36.2654 40.4126 37.0258 40.6238C37.7779 40.8437 38.5122 40.8476 39.2286 40.6355C39.9451 40.4234 40.589 40.0177 41.1605 39.4186C41.732 38.8195 42.1068 38.1571 42.2849 37.4314C42.463 36.7058 42.4286 35.9682 42.1818 35.2186C41.9266 34.4777 41.4648 33.7884 40.7962 33.1506Z" fill="white"></path>
  <path d="M32.6948 52.7935L25.4705 49.4179C24.6117 49.0166 23.8606 48.9372 23.2175 49.1798C22.5693 49.4332 22.0572 49.9621 21.6813 50.7667C21.3003 51.582 21.2231 52.3142 21.4497 52.9631C21.6712 53.6229 22.2114 54.1535 23.0703 54.5548L30.2945 57.9304L29.4258 59.7895L22.2342 56.4291C21.3101 55.9973 20.6213 55.4304 20.1678 54.7285C19.7144 54.0265 19.4875 53.2648 19.4871 52.4435C19.4868 51.6221 19.6772 50.8037 20.0582 49.9884C20.4391 49.173 20.9448 48.5019 21.575 47.9752C22.2002 47.4593 22.9249 47.1556 23.7492 47.0639C24.5735 46.9722 25.4477 47.1423 26.3718 47.5741L33.5634 50.9345L32.6948 52.7935Z" fill="white"></path>
  <path d="M24.9997 68.9351L21.3718 68.3677L20.7042 72.6358L19.0503 72.3771L19.7179 68.109L15.9299 67.5165L15.1789 72.3181L13.525 72.0594L14.5931 65.2305L26.9707 67.1664L25.9025 73.9954L24.2486 73.7367L24.9997 68.9351Z" fill="white"></path>
  <path d="M13.1967 86.6976C13.1048 85.8626 13.1651 85.0954 13.3778 84.3959C13.6024 83.6951 13.9621 83.1243 14.4568 82.6835C14.9515 82.2427 15.5567 81.9828 16.2723 81.904L16.5128 84.0868C15.9813 84.1936 15.563 84.451 15.2578 84.8588C14.9539 85.2786 14.8395 85.8285 14.9144 86.5084C14.9919 87.2121 15.2193 87.7424 15.5967 88.0992C15.9859 88.4547 16.4489 88.6029 16.9857 88.5438C17.4032 88.4978 17.7293 88.3351 17.9641 88.0557C18.2003 87.7883 18.3695 87.4618 18.4719 87.0762C18.5756 86.7026 18.6755 86.1846 18.7716 85.5221C18.8969 84.6873 19.0387 84.0017 19.1969 83.4651C19.3683 82.9392 19.6669 82.4717 20.0927 82.0626C20.5184 81.6535 21.119 81.4063 21.8943 81.3209C22.61 81.242 23.2559 81.352 23.8321 81.6507C24.4082 81.9494 24.8749 82.405 25.2322 83.0176C25.5894 83.6301 25.8146 84.3599 25.9079 85.2067C26.0407 86.4115 25.8449 87.429 25.3207 88.2594C24.8097 89.1004 24.034 89.6205 22.9935 89.8196L22.7452 87.5652C23.1945 87.4795 23.5585 87.2221 23.8372 86.793C24.1159 86.3639 24.2197 85.8273 24.1488 85.1832C24.0844 84.5988 23.8827 84.1381 23.5438 83.8012C23.2049 83.4643 22.7551 83.3267 22.1945 83.3884C21.8128 83.4305 21.5092 83.5786 21.2837 83.8328C21.0714 84.0977 20.9134 84.4169 20.8097 84.7905C20.706 85.1641 20.6048 85.6702 20.5061 86.3089C20.3702 87.1569 20.2171 87.8498 20.047 88.3876C19.8782 88.9374 19.5749 89.4175 19.1372 89.8279C18.7128 90.2489 18.1069 90.5028 17.3197 90.5895C16.6875 90.6592 16.0721 90.5519 15.4734 90.2678C14.876 89.9955 14.3682 89.5505 13.95 88.9325C13.5451 88.3252 13.294 87.5802 13.1967 86.6976Z" fill="white"></path>
  <path d="M30.6162 103.769L29.0635 104.395L27.8187 101.306L17.7683 105.357L17.0012 103.454L27.0516 99.4029L25.8 96.2976L27.3526 95.6718L30.6162 103.769Z" fill="white"></path>
  <path d="M38.3716 130.113L34.4553 126.635L32.085 127.948L30.4835 126.526L42.1542 120.135L43.9306 121.713L38.962 134.056L37.3471 132.622L38.3716 130.113ZM39.0526 128.479L41.3928 122.781L35.9976 125.766L39.0526 128.479Z" fill="white"></path>
  <path d="M58.9042 138.654C59.1942 137.465 59.7284 136.465 60.5066 135.654C61.2966 134.847 62.2277 134.295 63.2999 134.001C64.3867 133.698 65.4955 133.684 66.6264 133.96C67.9204 134.276 68.9906 134.877 69.8368 135.762C70.6975 136.639 71.213 137.716 71.3833 138.993L68.9875 138.408C68.8292 137.69 68.5086 137.106 68.0258 136.655C67.5429 136.203 66.9343 135.888 66.1998 135.709C65.3954 135.513 64.6344 135.519 63.9167 135.726C63.199 135.934 62.577 136.332 62.0506 136.92C61.5359 137.511 61.1691 138.255 60.9502 139.153C60.7312 140.051 60.7142 140.88 60.899 141.642C61.0955 142.406 61.463 143.052 62.0015 143.578C62.5429 144.093 63.2158 144.449 64.0202 144.645C64.7547 144.824 65.4401 144.825 66.0765 144.646C66.7129 144.468 67.2666 144.097 67.7378 143.532L70.1336 144.117C69.3945 145.172 68.4411 145.89 67.2733 146.272C66.1171 146.657 64.892 146.692 63.598 146.376C62.4555 146.098 61.476 145.581 60.6597 144.826C59.8462 144.059 59.2748 143.136 58.9455 142.055C58.6279 140.977 58.6141 139.843 58.9042 138.654Z" fill="white"></path>
  <path d="M85.5328 148.572C84.3739 148.681 83.2793 148.513 82.249 148.068C81.2295 147.61 80.3874 146.924 79.7227 146.01C79.0689 145.083 78.6845 144.011 78.5696 142.792C78.4548 141.574 78.6325 140.454 79.1027 139.433C79.585 138.412 80.2846 137.586 81.2017 136.957C82.1295 136.316 83.1729 135.94 84.3317 135.831C85.5025 135.72 86.5977 135.894 87.6172 136.353C88.6475 136.798 89.4891 137.478 90.1418 138.393C90.7945 139.308 91.1783 140.374 91.2932 141.593C91.4081 142.811 91.2309 143.937 90.7618 144.97C90.2915 145.99 89.5924 146.822 88.6646 147.463C87.7475 148.092 86.7036 148.462 85.5328 148.572ZM85.3656 146.798C86.1899 146.72 86.9072 146.466 87.5174 146.035C88.1265 145.592 88.5776 145.007 88.8707 144.28C89.1746 143.54 89.2832 142.71 89.1965 141.79C89.1098 140.871 88.8486 140.082 88.4129 139.424C87.9892 138.764 87.4373 138.28 86.7572 137.971C86.0772 137.661 85.325 137.545 84.5007 137.623C83.6763 137.7 82.959 137.955 82.3488 138.386C81.7386 138.817 81.2809 139.397 80.9759 140.125C80.6828 140.851 80.5796 141.675 80.6663 142.595C80.753 143.514 81.0088 144.31 81.4337 144.981C81.8694 145.639 82.4278 146.129 83.109 146.45C83.789 146.76 84.5412 146.876 85.3656 146.798Z" fill="white"></path>
  <path d="M112.28 141.153L110.405 141.988L100.967 135.963L104.764 144.498L102.89 145.332L97.7965 133.886L99.6713 133.052L109.103 139.06L105.312 130.542L107.187 129.707L112.28 141.153Z" fill="white"></path>
  <path d="M124.703 133.012C124.066 133.559 123.398 133.942 122.701 134.161C121.995 134.371 121.321 134.396 120.678 134.236C120.035 134.077 119.479 133.724 119.01 133.177L120.677 131.747C121.065 132.126 121.513 132.326 122.022 132.348C122.54 132.362 123.059 132.146 123.578 131.701C124.115 131.239 124.425 130.753 124.507 130.24C124.58 129.718 124.442 129.252 124.09 128.842C123.816 128.523 123.498 128.346 123.135 128.31C122.781 128.265 122.416 128.31 122.04 128.443C121.673 128.568 121.189 128.778 120.587 129.072C119.828 129.44 119.181 129.71 118.649 129.882C118.118 130.037 117.564 130.054 116.986 129.933C116.408 129.813 115.865 129.456 115.357 128.864C114.888 128.318 114.614 127.723 114.536 127.078C114.457 126.434 114.57 125.792 114.875 125.151C115.179 124.511 115.654 123.913 116.301 123.358C117.221 122.569 118.171 122.156 119.153 122.121C120.135 122.068 121.002 122.415 121.754 123.162L120.032 124.639C119.708 124.316 119.29 124.161 118.779 124.173C118.267 124.185 117.766 124.402 117.274 124.824C116.828 125.207 116.561 125.633 116.474 126.103C116.387 126.573 116.527 127.022 116.895 127.45C117.145 127.741 117.438 127.909 117.775 127.951C118.114 127.977 118.467 127.927 118.834 127.802C119.2 127.677 119.675 127.475 120.258 127.196C121.035 126.83 121.694 126.566 122.234 126.403C122.783 126.232 123.35 126.211 123.936 126.341C124.523 126.454 125.075 126.811 125.59 127.412C126.005 127.895 126.263 128.463 126.367 129.118C126.479 129.765 126.398 130.435 126.124 131.129C125.851 131.806 125.377 132.434 124.703 133.012Z" fill="white"></path>
  <path d="M125.527 114.288L132.236 118.598C133.033 119.111 133.767 119.29 134.437 119.135C135.113 118.971 135.691 118.515 136.171 117.768C136.658 117.011 136.832 116.295 136.694 115.622C136.563 114.939 136.098 114.341 135.301 113.828L128.592 109.518L129.701 107.791L136.38 112.082C137.238 112.634 137.845 113.288 138.2 114.044C138.556 114.8 138.679 115.585 138.57 116.399C138.46 117.213 138.162 117.999 137.676 118.756C137.189 119.513 136.598 120.111 135.903 120.549C135.215 120.976 134.456 121.18 133.627 121.161C132.798 121.142 131.954 120.857 131.096 120.305L124.418 116.014L125.527 114.288Z" fill="white"></path>
  <path d="M144.114 101.855L145.389 97.8217L146.968 98.3209L145.074 104.311L133.146 100.539L133.765 98.5827L144.114 101.855Z" fill="white"></path>
  <path d="M136.856 80.9299L138.528 81.0277L138.333 84.352L149.15 84.9851L149.031 87.0335L138.213 86.4005L138.017 89.7428L136.346 89.645L136.856 80.9299Z" fill="white"></path>
  <path d="M144.76 64.3766L145.964 69.4743L148.659 69.7623L149.151 71.8469L135.928 70.3662L135.382 68.0538L146.543 60.8108L147.04 62.913L144.76 64.3766ZM143.263 65.3222L138.073 68.6387L144.203 69.2987L143.263 65.3222Z" fill="white"></path>
  <path d="M127.998 50.2828L129.448 49.4473L131.11 52.3329L140.5 46.9247L141.524 48.7029L132.135 54.1111L133.805 57.0123L132.355 57.8478L127.998 50.2828Z" fill="white"></path>
  <path d="M121.823 42.4612L131.021 33.9825L132.412 35.4913L123.213 43.97L121.823 42.4612Z" fill="white"></path>
  <path d="M119.722 24.0615C120.702 24.6894 121.461 25.4961 121.998 26.4816C122.519 27.4707 122.759 28.5299 122.72 29.659C122.664 30.7918 122.306 31.8736 121.646 32.9042C120.985 33.9348 120.156 34.7073 119.156 35.2215C118.147 35.7292 117.088 35.9483 115.978 35.8787C114.852 35.8127 113.798 35.4657 112.818 34.8378C111.828 34.2035 111.072 33.3917 110.552 32.4026C110.015 31.4171 109.771 30.363 109.82 29.2403C109.869 28.1176 110.224 27.041 110.885 26.0103C111.545 24.9797 112.378 24.2022 113.383 23.6779C114.383 23.1636 115.445 22.9395 116.572 23.0055C117.682 23.0752 118.732 23.4271 119.722 24.0615ZM118.761 25.562C118.063 25.1154 117.342 24.8739 116.595 24.8376C115.842 24.8114 115.127 24.9942 114.448 25.3861C113.753 25.7815 113.156 26.3683 112.658 27.1463C112.159 27.9244 111.879 28.7068 111.817 29.4935C111.745 30.2737 111.881 30.9953 112.226 31.658C112.571 32.3208 113.092 32.8755 113.789 33.3222C114.486 33.7688 115.208 34.0103 115.954 34.0466C116.701 34.0829 117.418 33.9084 118.107 33.523C118.785 33.1312 119.374 32.5462 119.872 31.7682C120.371 30.9901 120.659 30.2059 120.738 29.4156C120.8 28.6289 120.662 27.8991 120.324 27.2262C119.979 26.5634 119.458 26.0087 118.761 25.562Z" fill="white"></path>
  <path d="M94.0827 13.4277L96.0734 13.9256L99.7963 24.4864L102.063 15.4236L104.054 15.9214L101.014 28.0751L99.0233 27.5772L95.2961 17.0338L93.0338 26.0792L91.0431 25.5814L94.0827 13.4277Z" fill="white"></path>
</svg>
