<?xml version="1.0" encoding="UTF-8"?>
<svg xmlns="http://www.w3.org/2000/svg" width="19" height="19" viewBox="0 0 19 19" fill="none">
  <g clip-path="url(#clip0_2_71975)">
    <path d="M2.92308 0V13.8846C2.92308 14.2902 2.59788 14.6154 2.19231 14.6154C1.78673 14.6154 1.46154 14.2902 1.46154 13.8846V5.11538H2.19231V3.65385H0V13.8846C0 15.0867 0.990192 16.0769 2.19231 16.0769H9.5C9.35385 15.6385 9.27127 15.1269 9.27127 14.6154H4.24869C4.332 14.3845 4.38535 14.1426 4.38535 13.8846V1.46154H16.0777V9.5C16.5892 9.64615 17.1007 9.86538 17.5392 10.2308V0H2.92308ZM5.84615 2.92308V5.84615H14.6154V2.92308H5.84615ZM5.84615 7.30769V8.76923H9.5V7.30769H5.84615ZM10.9615 7.30769V8.76923H14.6154V7.30769H10.9615ZM5.84615 9.5V10.9615H9.5V9.5H5.84615ZM14.6154 10.2308C12.1863 10.2308 10.2308 12.1863 10.2308 14.6154C10.2308 17.0445 12.1863 19 14.6154 19V17.5385C12.9522 17.5385 11.6923 16.2786 11.6923 14.6154C11.6923 12.9522 12.9522 11.6923 14.6154 11.6923C16.2786 11.6923 17.5385 12.9522 17.5385 14.6154C17.5385 15.2497 17.358 15.8358 17.0357 16.3057L16.0769 15.3462L15.7115 18.6346L19 18.2692L18.0865 17.3558C18.6938 16.5928 19 15.6217 19 14.6154C19 12.1863 17.0445 10.2308 14.6154 10.2308ZM5.84615 11.6923V13.1538H9.5V11.6923H5.84615Z" fill="#73747A"></path>
  </g>
  <defs>
    <clipPath id="clip0_2_71975">
      <rect width="19" height="19" fill="white"></rect>
    </clipPath>
  </defs>
</svg>
