<?xml version="1.0" encoding="UTF-8"?>
<svg xmlns="http://www.w3.org/2000/svg" width="84" height="70" viewBox="0 0 84 70" fill="none">
  <path fill-rule="evenodd" clip-rule="evenodd" d="M80.2495 52.0135H2.79676C1.17633 52.0135 0.0421143 50.7172 0.0421143 49.2589V2.59257C0.0421143 1.13424 1.17636 0 2.79676 0H80.2495C81.8699 0 83.0041 1.13424 83.0041 2.59257V49.2589C83.0041 50.7172 81.8699 52.0135 80.2495 52.0135ZM2.79676 1.94428C2.31066 1.94428 1.98657 2.26835 1.98657 2.59242V49.2587C1.98657 49.7448 2.31065 50.0689 2.79676 50.0689H80.2495C80.7356 50.0689 81.0597 49.7448 81.0597 49.2587V2.59242C81.0597 2.26835 80.7356 1.94428 80.2495 1.94428H2.79676Z" fill="#783CF0"></path>
  <path fill-rule="evenodd" clip-rule="evenodd" d="M48.1655 62.3841H34.8785C34.3924 62.3841 33.9062 61.898 33.9062 61.4118V51.0416C33.9062 50.3934 34.3923 50.0693 34.8785 50.0693H48.1655C48.6516 50.0693 49.1377 50.3934 49.1377 51.0416V61.4118C49.1377 61.8979 48.6516 62.3841 48.1655 62.3841ZM35.8508 60.4396H47.1932V52.0138H35.8508V60.4396Z" fill="#783CF0"></path>
  <path fill-rule="evenodd" clip-rule="evenodd" d="M63.0731 69.9996H19.9712C19.3231 69.9996 18.999 69.5135 18.999 69.0274V63.8422C18.999 61.8978 20.4574 60.4395 22.4018 60.4395H60.6415C62.5859 60.4395 64.0443 61.8978 64.0443 63.8422V69.0274C64.0443 69.5135 63.7202 69.9996 63.0721 69.9996H63.0731ZM20.9431 68.0552H62.0998V63.8422C62.0998 63.032 61.4517 62.3838 60.6415 62.3838H22.4018C21.5916 62.3838 20.9434 63.032 20.9434 63.8422L20.9431 68.0552Z" fill="#783CF0"></path>
  <path fill-rule="evenodd" clip-rule="evenodd" d="M22.4024 43.1024C1.3374 43.1024 1.01296 42.9404 0.851476 42.9404C0.203333 42.7784 -0.120739 42.2923 0.041289 41.8062C0.203317 41.3201 0.689433 40.996 1.17553 40.996C3.28203 41.32 54.9707 41.158 82.0312 40.996C82.5173 40.996 83.0034 41.4821 83.0034 41.9682C83.0034 42.6163 82.5173 42.9404 82.0312 42.9404C81.8692 42.9404 61.7765 43.1024 41.8463 43.1024H22.402H22.4024Z" fill="#783CF0"></path>
  <path fill-rule="evenodd" clip-rule="evenodd" d="M41.5223 38.0792C34.0688 38.0792 27.2632 34.3524 23.8602 28.033C23.5362 27.7089 23.5362 27.3849 23.8602 27.0608C27.263 20.9035 34.0685 17.0146 41.5223 17.0146C48.9762 17.0146 55.7815 20.9035 59.3459 27.0608C59.5079 27.3849 59.5079 27.7089 59.3459 28.033C55.7812 34.3524 48.9756 38.0792 41.5223 38.0792ZM25.8054 27.5468C29.0461 32.894 35.0415 36.1347 41.5223 36.1347C48.0032 36.1347 53.9991 32.894 57.2392 27.5468C53.9985 22.1996 48.0032 18.9589 41.5223 18.9589C35.0415 18.9589 29.0455 22.1996 25.8054 27.5468Z" fill="#783CF0"></path>
  <path fill-rule="evenodd" clip-rule="evenodd" d="M41.5223 34.5144C37.7955 34.5144 34.7167 31.4358 34.7167 27.5469C34.7167 23.8201 37.7954 20.7413 41.5223 20.7413C45.2492 20.7413 48.3279 23.82 48.3279 27.5469C48.3279 31.4358 45.2492 34.5144 41.5223 34.5144ZM41.5223 22.6858C38.7677 22.6858 36.6613 24.7923 36.6613 27.5468C36.6613 30.3013 38.7678 32.5698 41.5223 32.5698C44.2768 32.5698 46.3833 30.3014 46.3833 27.5468C46.3833 24.7921 44.2768 22.6858 41.5223 22.6858Z" fill="#783CF0"></path>
  <path fill-rule="evenodd" clip-rule="evenodd" d="M41.5222 30.4643C39.9018 30.4643 38.7676 29.168 38.7676 27.5476C38.7676 26.0893 39.9018 24.793 41.5222 24.793C43.1426 24.793 44.2769 26.0893 44.2769 27.5476C44.2769 29.168 43.1426 30.4643 41.5222 30.4643ZM41.5222 26.7375C41.0361 26.7375 40.712 27.0616 40.712 27.5477C40.712 28.0338 41.0361 28.5199 41.5222 28.5199C42.0083 28.5199 42.3324 28.0338 42.3324 27.5477C42.3324 27.0616 42.0083 26.7375 41.5222 26.7375Z" fill="#783CF0"></path>
  <path fill-rule="evenodd" clip-rule="evenodd" d="M41.5223 13.125C41.0362 13.125 40.55 12.6389 40.55 12.1528V5.83342C40.55 5.34732 41.0361 4.86121 41.5223 4.86121C42.0084 4.86121 42.4945 5.34731 42.4945 5.83342V12.1528C42.4945 12.6389 42.0084 13.125 41.5223 13.125Z" fill="#783CF0"></path>
  <path fill-rule="evenodd" clip-rule="evenodd" d="M49.3 15.0701H48.8139C48.3278 14.7461 48.1658 14.0979 48.4898 13.6118L51.5685 8.26459C51.7305 7.94052 52.3787 7.77849 52.8648 7.94052C53.3509 8.26459 53.5129 8.91273 53.1888 9.2368L50.1102 14.584C49.9481 14.9081 49.6241 15.0701 49.3 15.0701Z" fill="#783CF0"></path>
  <path fill-rule="evenodd" clip-rule="evenodd" d="M54.9715 20.7415C54.6474 20.7415 54.3233 20.5795 53.9992 20.2554C53.8372 19.9314 53.9992 19.2832 54.4853 18.9592L59.8326 15.8805C60.3187 15.5564 60.8048 15.7185 61.1288 16.2046C61.4529 16.6907 61.2909 17.3388 60.8048 17.6629L55.4576 20.7416L54.9715 20.7415Z" fill="#783CF0"></path>
  <path fill-rule="evenodd" clip-rule="evenodd" d="M28.0731 20.7416H27.587L22.2397 17.6629C21.7536 17.3388 21.5916 16.6907 21.9157 16.2046C22.2397 15.7185 22.7259 15.5564 23.212 15.8805L28.5592 18.9592C29.0453 19.2832 29.2073 19.9314 29.0453 20.2554C28.7212 20.5795 28.3971 20.7416 28.0731 20.7416Z" fill="#783CF0"></path>
  <path fill-rule="evenodd" clip-rule="evenodd" d="M33.7449 15.0701C33.4209 15.0701 33.0968 14.9081 32.9347 14.584L29.8561 9.23681C29.532 8.91274 29.6941 8.2646 30.1802 7.94052C30.6663 7.77848 31.3144 7.94052 31.4765 8.2646L34.7172 13.6118C34.8792 14.0979 34.7172 14.7461 34.2311 15.0701L33.7449 15.0701Z" fill="#783CF0"></path>
</svg>
