<?xml version="1.0" encoding="UTF-8"?>
<svg xmlns="http://www.w3.org/2000/svg" width="24" height="26" viewBox="0 0 24 26" fill="none">
  <path d="M21.8459 1.21552C21.6635 1.05437 21.3236 0.950549 21.1069 0.958491L8.82573 1.34522C8.26081 1.37082 7.80385 1.81708 7.80948 2.43343C7.81473 2.98478 8.34691 3.46866 8.89797 3.44993L18.7478 3.13201L0.845667 23.3959C0.460636 23.8317 0.502064 24.4968 0.937601 24.8816C1.37343 25.2666 2.03853 25.2252 2.4233 24.7896L20.3255 4.52578L21.2243 14.3397C21.2737 14.8888 21.8172 15.3333 22.367 15.2943C22.9474 15.2535 23.3747 14.7149 23.3216 14.1517L22.1916 1.91673C22.1735 1.57061 22.0284 1.38213 21.8459 1.21552Z" fill="#8C52FF"></path>
</svg>
