<?xml version="1.0" encoding="UTF-8"?>
<svg xmlns="http://www.w3.org/2000/svg" width="295" height="60" viewBox="0 0 295 60" fill="none">
  <path d="M4.832 42.88C6.016 42.88 7.05067 43.1093 7.936 43.568C8.832 44.016 9.52 44.6667 10 45.52C10.4907 46.3627 10.736 47.3493 10.736 48.48C10.736 49.6107 10.4907 50.592 10 51.424C9.52 52.256 8.832 52.896 7.936 53.344C7.05067 53.7813 6.016 54 4.832 54H1.2V42.88H4.832ZM4.832 52.512C6.13333 52.512 7.13067 52.16 7.824 51.456C8.51733 50.752 8.864 49.76 8.864 48.48C8.864 47.1893 8.51733 46.1813 7.824 45.456C7.13067 44.7307 6.13333 44.368 4.832 44.368H3.024V52.512H4.832ZM14.3678 46.464C14.6344 46.016 14.9864 45.6693 15.4238 45.424C15.8718 45.168 16.3998 45.04 17.0078 45.04V46.928H16.5438C15.8291 46.928 15.2851 47.1093 14.9118 47.472C14.5491 47.8347 14.3678 48.464 14.3678 49.36V54H12.5438V45.184H14.3678V46.464ZM18.0764 49.552C18.0764 48.6667 18.2577 47.8827 18.6204 47.2C18.9937 46.5173 19.495 45.9893 20.1244 45.616C20.7644 45.232 21.4684 45.04 22.2364 45.04C22.9297 45.04 23.5324 45.1787 24.0444 45.456C24.567 45.7227 24.983 46.0587 25.2924 46.464V45.184H27.1324V54H25.2924V52.688C24.983 53.104 24.5617 53.4507 24.0284 53.728C23.495 54.0053 22.887 54.144 22.2044 54.144C21.447 54.144 20.7537 53.952 20.1244 53.568C19.495 53.1733 18.9937 52.6293 18.6204 51.936C18.2577 51.232 18.0764 50.4373 18.0764 49.552ZM25.2924 49.584C25.2924 48.976 25.1644 48.448 24.9084 48C24.663 47.552 24.3377 47.2107 23.9324 46.976C23.527 46.7413 23.0897 46.624 22.6204 46.624C22.151 46.624 21.7137 46.7413 21.3084 46.976C20.903 47.2 20.5724 47.536 20.3164 47.984C20.071 48.4213 19.9484 48.944 19.9484 49.552C19.9484 50.16 20.071 50.6933 20.3164 51.152C20.5724 51.6107 20.903 51.9627 21.3084 52.208C21.7244 52.4427 22.1617 52.56 22.6204 52.56C23.0897 52.56 23.527 52.4427 23.9324 52.208C24.3377 51.9733 24.663 51.632 24.9084 51.184C25.1644 50.7253 25.2924 50.192 25.2924 49.584ZM33.0801 45.04C33.7628 45.04 34.3655 45.1787 34.8881 45.456C35.4215 45.7227 35.8375 46.0587 36.1361 46.464V45.184H37.9761V54.144C37.9761 54.9547 37.8055 55.6747 37.4641 56.304C37.1228 56.944 36.6268 57.4453 35.9761 57.808C35.3361 58.1707 34.5681 58.352 33.6721 58.352C32.4775 58.352 31.4855 58.0693 30.6961 57.504C29.9068 56.9493 29.4588 56.192 29.3521 55.232H31.1601C31.2988 55.6907 31.5921 56.0587 32.0401 56.336C32.4988 56.624 33.0428 56.768 33.6721 56.768C34.4081 56.768 35.0001 56.544 35.4481 56.096C35.9068 55.648 36.1361 54.9973 36.1361 54.144V52.672C35.8268 53.088 35.4055 53.44 34.8721 53.728C34.3495 54.0053 33.7521 54.144 33.0801 54.144C32.3121 54.144 31.6081 53.952 30.9681 53.568C30.3388 53.1733 29.8375 52.6293 29.4641 51.936C29.1015 51.232 28.9201 50.4373 28.9201 49.552C28.9201 48.6667 29.1015 47.8827 29.4641 47.2C29.8375 46.5173 30.3388 45.9893 30.9681 45.616C31.6081 45.232 32.3121 45.04 33.0801 45.04ZM36.1361 49.584C36.1361 48.976 36.0081 48.448 35.7521 48C35.5068 47.552 35.1815 47.2107 34.7761 46.976C34.3708 46.7413 33.9335 46.624 33.4641 46.624C32.9948 46.624 32.5575 46.7413 32.1521 46.976C31.7468 47.2 31.4161 47.536 31.1601 47.984C30.9148 48.4213 30.7921 48.944 30.7921 49.552C30.7921 50.16 30.9148 50.6933 31.1601 51.152C31.4161 51.6107 31.7468 51.9627 32.1521 52.208C32.5681 52.4427 33.0055 52.56 33.4641 52.56C33.9335 52.56 34.3708 52.4427 34.7761 52.208C35.1815 51.9733 35.5068 51.632 35.7521 51.184C36.0081 50.7253 36.1361 50.192 36.1361 49.584ZM53.1201 54L51.7441 52.624C51.2108 53.1573 50.6295 53.5573 50.0001 53.824C49.3708 54.08 48.6668 54.208 47.8881 54.208C47.0988 54.208 46.4001 54.0693 45.7921 53.792C45.1841 53.5147 44.7148 53.12 44.3841 52.608C44.0535 52.0853 43.8881 51.4827 43.8881 50.8C43.8881 50.032 44.1068 49.3493 44.5441 48.752C44.9815 48.144 45.6321 47.664 46.4961 47.312C46.1868 46.9387 45.9681 46.592 45.8401 46.272C45.7121 45.9413 45.6481 45.5787 45.6481 45.184C45.6481 44.6933 45.7708 44.256 46.0161 43.872C46.2721 43.488 46.6348 43.184 47.1041 42.96C47.5735 42.736 48.1175 42.624 48.7361 42.624C49.3655 42.624 49.8988 42.7467 50.3361 42.992C50.7841 43.2267 51.1148 43.552 51.3281 43.968C51.5521 44.384 51.6428 44.848 51.6001 45.36H49.7761C49.7868 44.9653 49.6908 44.6613 49.4881 44.448C49.2855 44.224 49.0081 44.112 48.6561 44.112C48.3041 44.112 48.0161 44.2187 47.7921 44.432C47.5788 44.6347 47.4721 44.8853 47.4721 45.184C47.4721 45.472 47.5521 45.76 47.7121 46.048C47.8828 46.3253 48.1761 46.688 48.5921 47.136L51.5361 50.064L52.6721 48.192H54.6401L53.2001 50.656L52.8001 51.312L55.5041 54H53.1201ZM47.8881 52.656C48.8908 52.656 49.7761 52.2453 50.5441 51.424L47.6001 48.464C46.3415 48.9653 45.7121 49.7227 45.7121 50.736C45.7121 51.28 45.9148 51.7387 46.3201 52.112C46.7255 52.4747 47.2481 52.656 47.8881 52.656ZM64.4883 42.88C65.6723 42.88 66.7069 43.1093 67.5923 43.568C68.4883 44.016 69.1763 44.6667 69.6562 45.52C70.1469 46.3627 70.3923 47.3493 70.3923 48.48C70.3923 49.6107 70.1469 50.592 69.6562 51.424C69.1763 52.256 68.4883 52.896 67.5923 53.344C66.7069 53.7813 65.6723 54 64.4883 54H60.8563V42.88H64.4883ZM64.4883 52.512C65.7896 52.512 66.7869 52.16 67.4803 51.456C68.1736 50.752 68.5203 49.76 68.5203 48.48C68.5203 47.1893 68.1736 46.1813 67.4803 45.456C66.7869 44.7307 65.7896 44.368 64.4883 44.368H62.6803V52.512H64.4883ZM74.024 46.464C74.2907 46.016 74.6427 45.6693 75.08 45.424C75.528 45.168 76.056 45.04 76.664 45.04V46.928H76.2C75.4853 46.928 74.9413 47.1093 74.568 47.472C74.2053 47.8347 74.024 48.464 74.024 49.36V54H72.2V45.184H74.024V46.464ZM82.1646 54.144C81.3326 54.144 80.5806 53.9573 79.9086 53.584C79.2366 53.2 78.7086 52.6667 78.3246 51.984C77.9406 51.2907 77.7486 50.4907 77.7486 49.584C77.7486 48.688 77.946 47.8933 78.3406 47.2C78.7353 46.5067 79.274 45.9733 79.9566 45.6C80.6393 45.2267 81.402 45.04 82.2446 45.04C83.0873 45.04 83.85 45.2267 84.5326 45.6C85.2153 45.9733 85.754 46.5067 86.1486 47.2C86.5433 47.8933 86.7406 48.688 86.7406 49.584C86.7406 50.48 86.538 51.2747 86.1326 51.968C85.7273 52.6613 85.1726 53.2 84.4686 53.584C83.7753 53.9573 83.0073 54.144 82.1646 54.144ZM82.1646 52.56C82.634 52.56 83.0713 52.448 83.4766 52.224C83.8926 52 84.2286 51.664 84.4846 51.216C84.7406 50.768 84.8686 50.224 84.8686 49.584C84.8686 48.944 84.746 48.4053 84.5006 47.968C84.2553 47.52 83.93 47.184 83.5246 46.96C83.1193 46.736 82.682 46.624 82.2126 46.624C81.7433 46.624 81.306 46.736 80.9006 46.96C80.506 47.184 80.1913 47.52 79.9566 47.968C79.722 48.4053 79.6046 48.944 79.6046 49.584C79.6046 50.5333 79.8446 51.2693 80.3246 51.792C80.8153 52.304 81.4286 52.56 82.1646 52.56ZM90.3678 46.48C90.6771 46.0747 91.0984 45.7333 91.6318 45.456C92.1651 45.1787 92.7678 45.04 93.4398 45.04C94.2078 45.04 94.9064 45.232 95.5358 45.616C96.1758 45.9893 96.6771 46.5173 97.0398 47.2C97.4024 47.8827 97.5838 48.6667 97.5838 49.552C97.5838 50.4373 97.4024 51.232 97.0398 51.936C96.6771 52.6293 96.1758 53.1733 95.5358 53.568C94.9064 53.952 94.2078 54.144 93.4398 54.144C92.7678 54.144 92.1704 54.0107 91.6478 53.744C91.1251 53.4667 90.6984 53.1253 90.3678 52.72V58.192H88.5438V45.184H90.3678V46.48ZM95.7278 49.552C95.7278 48.944 95.5998 48.4213 95.3438 47.984C95.0984 47.536 94.7678 47.2 94.3518 46.976C93.9464 46.7413 93.5091 46.624 93.0398 46.624C92.5811 46.624 92.1438 46.7413 91.7278 46.976C91.3224 47.2107 90.9918 47.552 90.7358 48C90.4904 48.448 90.3678 48.976 90.3678 49.584C90.3678 50.192 90.4904 50.7253 90.7358 51.184C90.9918 51.632 91.3224 51.9733 91.7278 52.208C92.1438 52.4427 92.5811 52.56 93.0398 52.56C93.5091 52.56 93.9464 52.4427 94.3518 52.208C94.7678 51.9627 95.0984 51.6107 95.3438 51.152C95.5998 50.6933 95.7278 50.16 95.7278 49.552ZM107.368 54.144C106.536 54.144 105.784 53.9573 105.112 53.584C104.44 53.2 103.912 52.6667 103.528 51.984C103.144 51.2907 102.952 50.4907 102.952 49.584C102.952 48.688 103.149 47.8933 103.544 47.2C103.938 46.5067 104.477 45.9733 105.16 45.6C105.842 45.2267 106.605 45.04 107.448 45.04C108.29 45.04 109.053 45.2267 109.736 45.6C110.418 45.9733 110.957 46.5067 111.352 47.2C111.746 47.8933 111.944 48.688 111.944 49.584C111.944 50.48 111.741 51.2747 111.336 51.968C110.93 52.6613 110.376 53.2 109.672 53.584C108.978 53.9573 108.21 54.144 107.368 54.144ZM107.368 52.56C107.837 52.56 108.274 52.448 108.68 52.224C109.096 52 109.432 51.664 109.688 51.216C109.944 50.768 110.072 50.224 110.072 49.584C110.072 48.944 109.949 48.4053 109.704 47.968C109.458 47.52 109.133 47.184 108.728 46.96C108.322 46.736 107.885 46.624 107.416 46.624C106.946 46.624 106.509 46.736 106.104 46.96C105.709 47.184 105.394 47.52 105.16 47.968C104.925 48.4053 104.808 48.944 104.808 49.584C104.808 50.5333 105.048 51.2693 105.528 51.792C106.018 52.304 106.632 52.56 107.368 52.56ZM115.571 46.464C115.838 46.016 116.19 45.6693 116.627 45.424C117.075 45.168 117.603 45.04 118.211 45.04V46.928H117.747C117.032 46.928 116.488 47.1093 116.115 47.472C115.752 47.8347 115.571 48.464 115.571 49.36V54H113.747V45.184H115.571V46.464ZM123.436 48.416C123.436 47.328 123.686 46.352 124.188 45.488C124.7 44.624 125.388 43.952 126.252 43.472C127.126 42.9813 128.081 42.736 129.116 42.736C130.3 42.736 131.35 43.0293 132.268 43.616C133.196 44.192 133.868 45.0133 134.284 46.08H132.092C131.804 45.4933 131.404 45.056 130.892 44.768C130.38 44.48 129.788 44.336 129.116 44.336C128.38 44.336 127.724 44.5013 127.148 44.832C126.572 45.1627 126.118 45.6373 125.788 46.256C125.468 46.8747 125.308 47.5947 125.308 48.416C125.308 49.2373 125.468 49.9573 125.788 50.576C126.118 51.1947 126.572 51.6747 127.148 52.016C127.724 52.3467 128.38 52.512 129.116 52.512C129.788 52.512 130.38 52.368 130.892 52.08C131.404 51.792 131.804 51.3547 132.092 50.768H134.284C133.868 51.8347 133.196 52.656 132.268 53.232C131.35 53.808 130.3 54.096 129.116 54.096C128.07 54.096 127.116 53.856 126.252 53.376C125.388 52.8853 124.7 52.208 124.188 51.344C123.686 50.48 123.436 49.504 123.436 48.416ZM140.979 45.04C141.651 45.04 142.248 45.184 142.771 45.472C143.304 45.76 143.72 46.1867 144.019 46.752C144.328 47.3173 144.483 48 144.483 48.8V54H142.675V49.072C142.675 48.2827 142.477 47.68 142.083 47.264C141.688 46.8373 141.149 46.624 140.467 46.624C139.784 46.624 139.24 46.8373 138.835 47.264C138.44 47.68 138.243 48.2827 138.243 49.072V54H136.419V42.16H138.243V46.208C138.552 45.8347 138.941 45.5467 139.411 45.344C139.891 45.1413 140.413 45.04 140.979 45.04ZM150.633 54.144C149.801 54.144 149.049 53.9573 148.377 53.584C147.705 53.2 147.177 52.6667 146.793 51.984C146.409 51.2907 146.217 50.4907 146.217 49.584C146.217 48.688 146.415 47.8933 146.809 47.2C147.204 46.5067 147.743 45.9733 148.425 45.6C149.108 45.2267 149.871 45.04 150.713 45.04C151.556 45.04 152.319 45.2267 153.001 45.6C153.684 45.9733 154.223 46.5067 154.617 47.2C155.012 47.8933 155.209 48.688 155.209 49.584C155.209 50.48 155.007 51.2747 154.601 51.968C154.196 52.6613 153.641 53.2 152.937 53.584C152.244 53.9573 151.476 54.144 150.633 54.144ZM150.633 52.56C151.103 52.56 151.54 52.448 151.945 52.224C152.361 52 152.697 51.664 152.953 51.216C153.209 50.768 153.337 50.224 153.337 49.584C153.337 48.944 153.215 48.4053 152.969 47.968C152.724 47.52 152.399 47.184 151.993 46.96C151.588 46.736 151.151 46.624 150.681 46.624C150.212 46.624 149.775 46.736 149.369 46.96C148.975 47.184 148.66 47.52 148.425 47.968C148.191 48.4053 148.073 48.944 148.073 49.584C148.073 50.5333 148.313 51.2693 148.793 51.792C149.284 52.304 149.897 52.56 150.633 52.56ZM160.837 54.144C160.005 54.144 159.253 53.9573 158.581 53.584C157.909 53.2 157.381 52.6667 156.997 51.984C156.613 51.2907 156.421 50.4907 156.421 49.584C156.421 48.688 156.618 47.8933 157.013 47.2C157.407 46.5067 157.946 45.9733 158.629 45.6C159.311 45.2267 160.074 45.04 160.917 45.04C161.759 45.04 162.522 45.2267 163.205 45.6C163.887 45.9733 164.426 46.5067 164.821 47.2C165.215 47.8933 165.413 48.688 165.413 49.584C165.413 50.48 165.21 51.2747 164.805 51.968C164.399 52.6613 163.845 53.2 163.141 53.584C162.447 53.9573 161.679 54.144 160.837 54.144ZM160.837 52.56C161.306 52.56 161.743 52.448 162.149 52.224C162.565 52 162.901 51.664 163.157 51.216C163.413 50.768 163.541 50.224 163.541 49.584C163.541 48.944 163.418 48.4053 163.173 47.968C162.927 47.52 162.602 47.184 162.197 46.96C161.791 46.736 161.354 46.624 160.885 46.624C160.415 46.624 159.978 46.736 159.573 46.96C159.178 47.184 158.863 47.52 158.629 47.968C158.394 48.4053 158.277 48.944 158.277 49.584C158.277 50.5333 158.517 51.2693 158.997 51.792C159.487 52.304 160.101 52.56 160.837 52.56ZM170.416 54.144C169.722 54.144 169.098 54.0213 168.544 53.776C168 53.52 167.568 53.1787 167.248 52.752C166.928 52.3147 166.757 51.8293 166.736 51.296H168.624C168.656 51.6693 168.832 51.984 169.152 52.24C169.482 52.4853 169.893 52.608 170.384 52.608C170.896 52.608 171.29 52.512 171.568 52.32C171.856 52.1173 172 51.8613 172 51.552C172 51.2213 171.84 50.976 171.52 50.816C171.21 50.656 170.714 50.48 170.032 50.288C169.37 50.1067 168.832 49.9307 168.416 49.76C168 49.5893 167.637 49.328 167.328 48.976C167.029 48.624 166.88 48.16 166.88 47.584C166.88 47.1147 167.018 46.688 167.296 46.304C167.573 45.9093 167.968 45.6 168.48 45.376C169.002 45.152 169.6 45.04 170.272 45.04C171.274 45.04 172.08 45.296 172.688 45.808C173.306 46.3093 173.637 46.9973 173.68 47.872H171.856C171.824 47.4773 171.664 47.1627 171.376 46.928C171.088 46.6933 170.698 46.576 170.208 46.576C169.728 46.576 169.36 46.6667 169.104 46.848C168.848 47.0293 168.72 47.2693 168.72 47.568C168.72 47.8027 168.805 48 168.976 48.16C169.146 48.32 169.354 48.448 169.6 48.544C169.845 48.6293 170.208 48.7413 170.688 48.88C171.328 49.0507 171.85 49.2267 172.256 49.408C172.672 49.5787 173.029 49.8347 173.328 50.176C173.626 50.5173 173.781 50.9707 173.792 51.536C173.792 52.0373 173.653 52.4853 173.376 52.88C173.098 53.2747 172.704 53.584 172.192 53.808C171.69 54.032 171.098 54.144 170.416 54.144ZM183.843 49.376C183.843 49.7067 183.821 50.0053 183.779 50.272H177.043C177.096 50.976 177.357 51.5413 177.827 51.968C178.296 52.3947 178.872 52.608 179.555 52.608C180.536 52.608 181.229 52.1973 181.635 51.376H183.602C183.336 52.1867 182.851 52.8533 182.147 53.376C181.453 53.888 180.589 54.144 179.555 54.144C178.712 54.144 177.955 53.9573 177.283 53.584C176.621 53.2 176.099 52.6667 175.715 51.984C175.341 51.2907 175.155 50.4907 175.155 49.584C175.155 48.6773 175.336 47.8827 175.699 47.2C176.072 46.5067 176.589 45.9733 177.251 45.6C177.923 45.2267 178.691 45.04 179.555 45.04C180.387 45.04 181.128 45.2213 181.779 45.584C182.429 45.9467 182.936 46.4587 183.299 47.12C183.661 47.7707 183.843 48.5227 183.843 49.376ZM181.939 48.8C181.928 48.128 181.688 47.5893 181.219 47.184C180.749 46.7787 180.168 46.576 179.475 46.576C178.845 46.576 178.307 46.7787 177.859 47.184C177.411 47.5787 177.144 48.1173 177.059 48.8H181.939ZM193.49 46.672H191.858V54H190.018V46.672H188.978V45.184H190.018V44.56C190.018 43.5467 190.284 42.8107 190.818 42.352C191.362 41.8827 192.21 41.648 193.362 41.648V43.168C192.807 43.168 192.418 43.2747 192.194 43.488C191.97 43.6907 191.858 44.048 191.858 44.56V45.184H193.49V46.672ZM196.034 44.016C195.704 44.016 195.426 43.904 195.202 43.68C194.978 43.456 194.866 43.1787 194.866 42.848C194.866 42.5173 194.978 42.24 195.202 42.016C195.426 41.792 195.704 41.68 196.034 41.68C196.354 41.68 196.626 41.792 196.85 42.016C197.074 42.24 197.186 42.5173 197.186 42.848C197.186 43.1787 197.074 43.456 196.85 43.68C196.626 43.904 196.354 44.016 196.034 44.016ZM196.93 45.184V54H195.106V45.184H196.93ZM201.149 42.16V54H199.325V42.16H201.149ZM211.624 49.376C211.624 49.7067 211.602 50.0053 211.56 50.272H204.824C204.877 50.976 205.138 51.5413 205.608 51.968C206.077 52.3947 206.653 52.608 207.336 52.608C208.317 52.608 209.01 52.1973 209.416 51.376H211.384C211.117 52.1867 210.632 52.8533 209.928 53.376C209.234 53.888 208.37 54.144 207.336 54.144C206.493 54.144 205.736 53.9573 205.064 53.584C204.402 53.2 203.88 52.6667 203.496 51.984C203.122 51.2907 202.936 50.4907 202.936 49.584C202.936 48.6773 203.117 47.8827 203.48 47.2C203.853 46.5067 204.37 45.9733 205.032 45.6C205.704 45.2267 206.472 45.04 207.336 45.04C208.168 45.04 208.909 45.2213 209.56 45.584C210.21 45.9467 210.717 46.4587 211.08 47.12C211.442 47.7707 211.624 48.5227 211.624 49.376ZM209.72 48.8C209.709 48.128 209.469 47.5893 209 47.184C208.53 46.7787 207.949 46.576 207.256 46.576C206.626 46.576 206.088 46.7787 205.64 47.184C205.192 47.5787 204.925 48.1173 204.84 48.8H209.72ZM219.703 46.672V51.552C219.703 51.8827 219.778 52.1227 219.927 52.272C220.087 52.4107 220.354 52.48 220.727 52.48H221.847V54H220.407C219.586 54 218.956 53.808 218.519 53.424C218.082 53.04 217.863 52.416 217.863 51.552V46.672H216.823V45.184H217.863V42.992H219.703V45.184H221.847V46.672H219.703ZM227.352 54.144C226.52 54.144 225.768 53.9573 225.096 53.584C224.424 53.2 223.896 52.6667 223.512 51.984C223.128 51.2907 222.936 50.4907 222.936 49.584C222.936 48.688 223.133 47.8933 223.528 47.2C223.923 46.5067 224.461 45.9733 225.144 45.6C225.827 45.2267 226.589 45.04 227.432 45.04C228.275 45.04 229.037 45.2267 229.72 45.6C230.403 45.9733 230.941 46.5067 231.336 47.2C231.731 47.8933 231.928 48.688 231.928 49.584C231.928 50.48 231.725 51.2747 231.32 51.968C230.915 52.6613 230.36 53.2 229.656 53.584C228.963 53.9573 228.195 54.144 227.352 54.144ZM227.352 52.56C227.821 52.56 228.259 52.448 228.664 52.224C229.08 52 229.416 51.664 229.672 51.216C229.928 50.768 230.056 50.224 230.056 49.584C230.056 48.944 229.933 48.4053 229.688 47.968C229.443 47.52 229.117 47.184 228.712 46.96C228.307 46.736 227.869 46.624 227.4 46.624C226.931 46.624 226.493 46.736 226.088 46.96C225.693 47.184 225.379 47.52 225.144 47.968C224.909 48.4053 224.792 48.944 224.792 49.584C224.792 50.5333 225.032 51.2693 225.512 51.792C226.003 52.304 226.616 52.56 227.352 52.56ZM245.872 45.184V54H244.048V52.96C243.76 53.3227 243.381 53.6107 242.912 53.824C242.453 54.0267 241.962 54.128 241.44 54.128C240.746 54.128 240.122 53.984 239.568 53.696C239.024 53.408 238.592 52.9813 238.272 52.416C237.962 51.8507 237.808 51.168 237.808 50.368V45.184H239.616V50.096C239.616 50.8853 239.813 51.4933 240.208 51.92C240.602 52.336 241.141 52.544 241.824 52.544C242.506 52.544 243.045 52.336 243.44 51.92C243.845 51.4933 244.048 50.8853 244.048 50.096V45.184H245.872ZM250.102 46.48C250.411 46.0747 250.833 45.7333 251.366 45.456C251.899 45.1787 252.502 45.04 253.174 45.04C253.942 45.04 254.641 45.232 255.27 45.616C255.91 45.9893 256.411 46.5173 256.774 47.2C257.137 47.8827 257.318 48.6667 257.318 49.552C257.318 50.4373 257.137 51.232 256.774 51.936C256.411 52.6293 255.91 53.1733 255.27 53.568C254.641 53.952 253.942 54.144 253.174 54.144C252.502 54.144 251.905 54.0107 251.382 53.744C250.859 53.4667 250.433 53.1253 250.102 52.72V58.192H248.278V45.184H250.102V46.48ZM255.462 49.552C255.462 48.944 255.334 48.4213 255.078 47.984C254.833 47.536 254.502 47.2 254.086 46.976C253.681 46.7413 253.243 46.624 252.774 46.624C252.315 46.624 251.878 46.7413 251.462 46.976C251.057 47.2107 250.726 47.552 250.47 48C250.225 48.448 250.102 48.976 250.102 49.584C250.102 50.192 250.225 50.7253 250.47 51.184C250.726 51.632 251.057 51.9733 251.462 52.208C251.878 52.4427 252.315 52.56 252.774 52.56C253.243 52.56 253.681 52.4427 254.086 52.208C254.502 51.9627 254.833 51.6107 255.078 51.152C255.334 50.6933 255.462 50.16 255.462 49.552ZM260.946 42.16V54H259.122V42.16H260.946ZM267.165 54.144C266.333 54.144 265.581 53.9573 264.909 53.584C264.237 53.2 263.709 52.6667 263.325 51.984C262.941 51.2907 262.749 50.4907 262.749 49.584C262.749 48.688 262.946 47.8933 263.341 47.2C263.735 46.5067 264.274 45.9733 264.957 45.6C265.639 45.2267 266.402 45.04 267.245 45.04C268.087 45.04 268.85 45.2267 269.533 45.6C270.215 45.9733 270.754 46.5067 271.149 47.2C271.543 47.8933 271.741 48.688 271.741 49.584C271.741 50.48 271.538 51.2747 271.133 51.968C270.727 52.6613 270.173 53.2 269.469 53.584C268.775 53.9573 268.007 54.144 267.165 54.144ZM267.165 52.56C267.634 52.56 268.071 52.448 268.477 52.224C268.893 52 269.229 51.664 269.485 51.216C269.741 50.768 269.869 50.224 269.869 49.584C269.869 48.944 269.746 48.4053 269.501 47.968C269.255 47.52 268.93 47.184 268.525 46.96C268.119 46.736 267.682 46.624 267.213 46.624C266.743 46.624 266.306 46.736 265.901 46.96C265.506 47.184 265.191 47.52 264.957 47.968C264.722 48.4053 264.605 48.944 264.605 49.584C264.605 50.5333 264.845 51.2693 265.325 51.792C265.815 52.304 266.429 52.56 267.165 52.56ZM272.936 49.552C272.936 48.6667 273.117 47.8827 273.48 47.2C273.853 46.5173 274.354 45.9893 274.984 45.616C275.624 45.232 276.328 45.04 277.096 45.04C277.789 45.04 278.392 45.1787 278.904 45.456C279.426 45.7227 279.842 46.0587 280.152 46.464V45.184H281.992V54H280.152V52.688C279.842 53.104 279.421 53.4507 278.888 53.728C278.354 54.0053 277.746 54.144 277.064 54.144C276.306 54.144 275.613 53.952 274.984 53.568C274.354 53.1733 273.853 52.6293 273.48 51.936C273.117 51.232 272.936 50.4373 272.936 49.552ZM280.152 49.584C280.152 48.976 280.024 48.448 279.768 48C279.522 47.552 279.197 47.2107 278.792 46.976C278.386 46.7413 277.949 46.624 277.48 46.624C277.01 46.624 276.573 46.7413 276.168 46.976C275.762 47.2 275.432 47.536 275.176 47.984C274.93 48.4213 274.808 48.944 274.808 49.552C274.808 50.16 274.93 50.6933 275.176 51.152C275.432 51.6107 275.762 51.9627 276.168 52.208C276.584 52.4427 277.021 52.56 277.48 52.56C277.949 52.56 278.386 52.4427 278.792 52.208C279.197 51.9733 279.522 51.632 279.768 51.184C280.024 50.7253 280.152 50.192 280.152 49.584ZM283.78 49.552C283.78 48.6667 283.961 47.8827 284.324 47.2C284.697 46.5173 285.198 45.9893 285.828 45.616C286.468 45.232 287.177 45.04 287.956 45.04C288.532 45.04 289.097 45.168 289.652 45.424C290.217 45.6693 290.665 46 290.996 46.416V42.16H292.836V54H290.996V52.672C290.697 53.0987 290.281 53.4507 289.748 53.728C289.225 54.0053 288.622 54.144 287.94 54.144C287.172 54.144 286.468 53.952 285.828 53.568C285.198 53.1733 284.697 52.6293 284.324 51.936C283.961 51.232 283.78 50.4373 283.78 49.552ZM290.996 49.584C290.996 48.976 290.868 48.448 290.612 48C290.366 47.552 290.041 47.2107 289.636 46.976C289.23 46.7413 288.793 46.624 288.324 46.624C287.854 46.624 287.417 46.7413 287.012 46.976C286.606 47.2 286.276 47.536 286.02 47.984C285.774 48.4213 285.652 48.944 285.652 49.552C285.652 50.16 285.774 50.6933 286.02 51.152C286.276 51.6107 286.606 51.9627 287.012 52.208C287.428 52.4427 287.865 52.56 288.324 52.56C288.793 52.56 289.23 52.4427 289.636 52.208C290.041 51.9733 290.366 51.632 290.612 51.184C290.868 50.7253 290.996 50.192 290.996 49.584Z" fill="#73747A"></path>
  <path d="M141 16C140.45 16 139.979 15.804 139.587 15.412C139.195 15.02 138.999 14.5493 139 14V11H141V14H153V11H155V14C155 14.55 154.804 15.021 154.412 15.413C154.02 15.805 153.549 16.0007 153 16H141ZM146 12V3.85L143.4 6.45L142 5L147 0L152 5L150.6 6.45L148 3.85V12H146Z" fill="#777777"></path>
</svg>
