<svg width="36" height="29" viewBox="0 0 36 29" fill="none" xmlns="http://www.w3.org/2000/svg">
<path d="M35.0279 24.4231C35.2096 24.1555 35.2903 23.6906 35.2445 23.407L32.7275 7.32118C32.6014 6.5826 31.9407 6.05837 31.1323 6.1718C30.4092 6.27354 29.8609 7.05671 29.9757 7.77824L32.0046 20.6782L2.46834 0.618908C1.83309 0.187482 0.966556 0.35638 0.532578 0.99539C0.0983126 1.63482 0.26152 2.50244 0.896351 2.93358L30.4326 22.9928L17.6934 25.8632C16.9805 26.0226 16.4858 26.8139 16.6269 27.5303C16.7755 28.2865 17.5526 28.7559 18.2835 28.5892L34.1637 24.9983C34.6152 24.9151 34.8392 24.6914 35.0281 24.4228L35.0279 24.4231Z" fill="white"/>
</svg>
