<svg width="13" height="16" viewBox="0 0 13 16" fill="none" xmlns="http://www.w3.org/2000/svg">
<path d="M6.34417 5.58503L5.02109 6.77211C5.19478 7.37117 5.43914 7.94744 5.74902 8.48874C6.07155 9.02632 6.45954 9.5218 6.90411 9.9638L8.61754 9.43585C9.57745 9.13988 10.6253 9.44385 11.2637 10.2038L12.2396 11.3653C12.6347 11.8315 12.8328 12.4333 12.7919 13.0431C12.751 13.6529 12.4743 14.2228 12.0204 14.6321C10.4286 16.0848 7.97761 16.576 6.14259 15.1345C4.52983 13.8646 3.16524 12.308 2.11738 10.5429C1.06721 8.78615 0.364403 6.84392 0.0471801 4.8219C-0.304785 2.54693 1.36065 0.726303 3.43725 0.105564C4.67553 -0.2656 5.997 0.371138 6.45135 1.55822L6.9873 2.95809C7.33927 3.8796 7.08649 4.91949 6.34417 5.58503Z" fill="#8C52FF"/>
</svg>
