<svg width="19" height="19" viewBox="0 0 19 19" fill="none" xmlns="http://www.w3.org/2000/svg">
<g clip-path="url(#clip0_2_71979)">
<path fill-rule="evenodd" clip-rule="evenodd" d="M18.9299 8.35169C19.1927 10.5086 18.7081 12.6904 17.557 14.5334C16.4059 16.3763 14.6578 17.7689 12.6042 18.4789C10.5506 19.189 8.31569 19.1737 6.27206 18.4354C4.22844 17.6972 2.49964 16.2807 1.37394 14.4222C1.25142 14.2202 1.21419 13.9777 1.27042 13.7482C1.32665 13.5187 1.47174 13.321 1.67378 13.1985C1.87582 13.076 2.11825 13.0387 2.34774 13.095C2.57723 13.1512 2.77499 13.2963 2.8975 13.4983C3.50389 14.4996 4.33008 15.3499 5.31358 15.9848C6.29707 16.6197 7.41208 17.0226 8.57426 17.163C9.73643 17.3034 10.9153 17.1776 12.0217 16.7952C13.1281 16.4127 14.133 15.7836 14.9604 14.9555C15.7878 14.1274 16.4159 13.1219 16.7974 12.0152C17.1789 10.9085 17.3036 9.72946 17.1622 8.56741C17.0207 7.40536 16.6168 6.2907 15.9811 5.30778C15.3453 4.32486 14.4942 3.49943 13.4924 2.89394C13.2902 2.77174 13.1448 2.57422 13.0882 2.34484C13.0317 2.11546 13.0686 1.87301 13.1908 1.67081C13.3129 1.46862 13.5105 1.32325 13.7398 1.26668C13.9692 1.21012 14.2117 1.24699 14.4139 1.36919C15.6468 2.11445 16.6941 3.13036 17.4765 4.34006C18.2589 5.54976 18.7559 6.92157 18.9299 8.35169ZM10.6875 1.1875C10.6875 1.50244 10.5624 1.80449 10.3397 2.02719C10.117 2.24989 9.81494 2.375 9.5 2.375C9.18506 2.375 8.88301 2.24989 8.66031 2.02719C8.43761 1.80449 8.3125 1.50244 8.3125 1.1875C8.3125 0.872555 8.43761 0.57051 8.66031 0.347811C8.88301 0.125111 9.18506 0 9.5 0C9.81494 0 10.117 0.125111 10.3397 0.347811C10.5624 0.57051 10.6875 0.872555 10.6875 1.1875ZM3.32975 5.9375C3.40895 5.8024 3.46065 5.65296 3.48187 5.4978C3.50308 5.34263 3.4934 5.18481 3.45337 5.0334C3.41334 4.882 3.34376 4.74 3.24863 4.6156C3.1535 4.4912 3.0347 4.38684 2.89908 4.30853C2.76345 4.23023 2.61368 4.17952 2.45838 4.15933C2.30307 4.13915 2.14531 4.14988 1.99418 4.19091C1.84304 4.23195 1.70151 4.30247 1.57774 4.39842C1.45397 4.49437 1.3504 4.61386 1.273 4.75C1.11801 5.0226 1.07714 5.34544 1.1593 5.64806C1.24146 5.95069 1.43998 6.20853 1.71155 6.36533C1.98312 6.52212 2.30568 6.56513 2.60884 6.48498C2.912 6.40483 3.17116 6.20802 3.32975 5.9375ZM1.1875 8.3125C1.50244 8.3125 1.80449 8.43761 2.02719 8.66031C2.24989 8.88301 2.375 9.18506 2.375 9.5C2.375 9.81494 2.24989 10.117 2.02719 10.3397C1.80449 10.5624 1.50244 10.6875 1.1875 10.6875C0.872555 10.6875 0.57051 10.5624 0.347811 10.3397C0.125111 10.117 0 9.81494 0 9.5C0 9.18506 0.125111 8.88301 0.347811 8.66031C0.57051 8.43761 0.872555 8.3125 1.1875 8.3125ZM5.9375 3.32975C6.07364 3.25235 6.19313 3.14878 6.28908 3.02501C6.38503 2.90124 6.45555 2.75971 6.49659 2.60857C6.53762 2.45744 6.54835 2.29968 6.52817 2.14437C6.50798 1.98907 6.45727 1.8393 6.37897 1.70367C6.30066 1.56805 6.1963 1.44925 6.0719 1.35412C5.9475 1.25899 5.8055 1.18941 5.6541 1.14938C5.50269 1.10935 5.34487 1.09967 5.1897 1.12088C5.03454 1.1421 4.8851 1.1938 4.75 1.273C4.47948 1.43159 4.28267 1.69075 4.20252 1.99391C4.12237 2.29707 4.16538 2.61963 4.32217 2.8912C4.47897 3.16277 4.73681 3.36129 5.03944 3.44345C5.34206 3.52561 5.6649 3.48474 5.9375 3.32975Z" fill="#73747A"/>
</g>
<defs>
<clipPath id="clip0_2_71979">
<rect width="19" height="19" fill="white"/>
</clipPath>
</defs>
</svg>
