<svg width="54" height="70" viewBox="0 0 54 70" fill="none" xmlns="http://www.w3.org/2000/svg">
<path d="M46.6107 4.59443H38.521V2.4206C38.5172 1.08543 37.4356 0.00469299 36.1004 0H17.8081C16.4729 0.0045829 15.3914 1.08541 15.3875 2.4206V4.59443H7.2931C5.35984 4.59672 3.50605 5.3659 2.13883 6.73248C0.772329 8.09974 0.00312866 9.95285 0 11.886V62.7091C0.00305533 64.6423 0.772233 66.4953 2.13942 67.862C3.50668 69.2292 5.35978 69.9977 7.2929 70H46.6103C48.5436 69.9977 50.3966 69.2293 51.7638 67.862C53.1311 66.4955 53.9003 64.6424 53.9032 62.7091V11.886C53.9002 9.95271 53.131 8.0997 51.7644 6.73248C50.3972 5.36598 48.5433 4.59678 46.6101 4.59443H46.6107ZM17.438 2.4206C17.4433 2.21818 17.606 2.05549 17.8084 2.05091H36.096C36.1945 2.05015 36.2893 2.08834 36.3588 2.15785C36.4283 2.22736 36.4672 2.32207 36.4665 2.42062V8.87582C36.4672 8.97436 36.429 9.06907 36.3595 9.13935C36.29 9.20886 36.1945 9.24782 36.096 9.24705H17.8084C17.606 9.2417 17.4433 9.07825 17.438 8.87584V2.4206ZM51.8493 62.7079C51.847 64.0965 51.2948 65.4271 50.3125 66.4087C49.3309 67.3902 47.9996 67.9425 46.6109 67.9432H7.29341C5.90475 67.9425 4.57343 67.391 3.59104 66.4095C2.60864 65.4279 2.05649 64.0966 2.0542 62.7079V11.8848C2.05573 10.4961 2.60873 9.16558 3.59027 8.18318C4.57255 7.2009 5.90391 6.64863 7.29265 6.64711H15.3824V8.87745H15.3816C15.3862 10.2126 16.467 11.2941 17.8022 11.2981H36.0961C37.4312 11.2942 38.5128 10.2126 38.5167 8.87745V6.64711H46.6064C47.9958 6.64711 49.3287 7.19935 50.3117 8.18089C51.2947 9.16317 51.8485 10.4953 51.8501 11.8846L51.8493 62.7079ZM10.2381 24.1315C10.2381 23.8588 10.3466 23.5976 10.5391 23.4044C10.7323 23.2119 10.9936 23.1042 11.2663 23.1042H14.0328V20.3298C14.0511 19.7753 14.5056 19.3361 15.0601 19.3361C15.6147 19.3361 16.0692 19.7753 16.0875 20.3298V23.1042H18.854C19.4208 23.1042 19.8806 23.564 19.8806 24.1315C19.8806 24.6983 19.4208 25.1581 18.854 25.1581H16.0875V27.933C16.0692 28.4868 15.6147 28.9268 15.0601 28.9268C14.5056 28.9268 14.0511 28.4868 14.0328 27.933V25.1581H11.2753C11.0011 25.1612 10.7368 25.0542 10.542 24.861C10.3472 24.6685 10.2381 24.4058 10.2381 24.1315ZM39.3757 23.7695C39.7798 24.1521 40.4153 24.1445 40.8094 23.7504C41.2036 23.357 41.2127 22.7215 40.8308 22.3167L36.8359 18.318L36.8351 18.3188C36.4349 17.9208 35.7887 17.9208 35.3885 18.3188L31.3914 22.3166C31.1989 22.5099 31.0904 22.7711 31.0904 23.0438C31.0904 23.3157 31.1989 23.577 31.3922 23.7702C31.7932 24.1712 32.444 24.1705 32.845 23.7695L35.0861 21.526V29.9564H35.0853C33.9869 30.1924 33.0024 30.7974 32.2949 31.6704C31.5884 32.5435 31.2019 33.6327 31.1996 34.7562C31.2065 35.2604 31.292 35.7599 31.4524 36.2373L18.7254 44.8282C17.7508 43.8857 16.4286 43.3876 15.0735 43.4533C13.7185 43.5198 12.4513 44.1431 11.5714 45.1758C10.6922 46.2092 10.2797 47.5596 10.431 48.9079C10.5822 50.2561 11.2849 51.4812 12.3719 52.2939C13.458 53.1058 14.8322 53.432 16.1681 53.1959C17.504 52.9592 18.6826 52.1808 19.4243 51.045L31.1812 57.9912V57.9904C31.0085 58.4846 30.9169 59.0033 30.9108 59.5273C30.8963 61.0824 31.6135 62.5543 32.8471 63.5022C34.0807 64.4502 35.6877 64.7641 37.1871 64.3493C38.6865 63.9346 39.9042 62.8408 40.4761 61.3933C41.0482 59.9466 40.9069 58.3159 40.0965 56.9884C39.2853 55.6608 37.8982 54.7909 36.3499 54.6387C34.8016 54.4875 33.2717 55.0718 32.2183 56.2168L20.1581 49.0917C20.3201 48.2293 20.2208 47.3387 19.8732 46.5328L32.4735 38.0276C33.5215 39.1978 35.0676 39.7951 36.6303 39.6339C38.1931 39.472 39.584 38.5714 40.3708 37.211C41.1576 35.8514 41.2447 34.1961 40.6053 32.7608C39.966 31.3256 38.6782 30.2837 37.1405 29.9584V21.5256L39.3757 23.7695ZM35.827 56.6653C36.5848 56.6653 37.3119 56.9671 37.8481 57.5033C38.3844 58.0387 38.6853 58.7659 38.6853 59.5244C38.6853 60.2829 38.3843 61.01 37.8474 61.5455C37.3112 62.0817 36.584 62.3827 35.8263 62.3827C35.0678 62.3827 34.3406 62.0809 33.8051 61.5447C33.2689 61.0085 32.968 60.2813 32.968 59.5228C32.9695 58.7651 33.2712 58.0387 33.8067 57.5033C34.3429 56.9678 35.0693 56.6661 35.827 56.6653ZM15.3187 51.2154C14.5602 51.2162 13.833 50.9152 13.296 50.379C12.7598 49.8428 12.4581 49.1149 12.4581 48.3564C12.4573 47.5979 12.759 46.8707 13.2952 46.3345C13.8314 45.7975 14.5586 45.4965 15.3171 45.4958C16.0756 45.4958 16.8035 45.7975 17.3398 46.3337C17.876 46.8699 18.1777 47.5971 18.1777 48.3556C18.1762 49.1141 17.8752 49.8405 17.339 50.3767C16.8036 50.9129 16.0764 51.2147 15.3187 51.2154ZM38.9713 34.7556C38.9713 35.514 38.6704 36.2412 38.135 36.7774C37.5987 37.3137 36.8723 37.6154 36.1138 37.6154C35.3554 37.6154 34.6282 37.3152 34.0919 36.779C33.5557 36.2428 33.254 35.5164 33.254 34.7579C33.254 34.0002 33.555 33.273 34.0904 32.736C34.6266 32.1998 35.353 31.8988 36.1115 31.8981C36.8692 31.8988 37.5964 32.1998 38.1318 32.736C38.6681 33.2714 38.9698 33.9979 38.9713 34.7556ZM48.4911 47.6231C48.4903 48.1899 48.0305 48.6497 47.4629 48.6497H46.0797V50.033C46.0613 50.5876 45.6068 51.0268 45.0523 51.0268C44.4978 51.0268 44.0433 50.5876 44.0249 50.033V48.6497H42.6493C42.0955 48.6314 41.6555 48.1769 41.6555 47.6224C41.6555 47.0678 42.0955 46.6133 42.6493 46.595H44.0196V45.2117H44.0203C44.0387 44.6572 44.4932 44.218 45.0477 44.218C45.6022 44.218 46.0567 44.6572 46.0751 45.2117V46.595H47.4583C47.7318 46.5935 47.9946 46.7012 48.1886 46.8944C48.3826 47.0869 48.4911 47.3497 48.4911 47.6231Z" fill="#783CF0"/>
</svg>
