<svg width="80" height="70" viewBox="0 0 80 70" fill="none" xmlns="http://www.w3.org/2000/svg">
<path d="M0 0V70H79.4627V0H0ZM77.642 1.82016V9.70574H1.81932V1.82016H77.642ZM1.69822 68.059V11.404H77.5209V68.059H1.69822Z" fill="#783CF0"/>
<path d="M71.4551 4.85352H73.2747V6.67311H71.4551V4.85352Z" fill="#783CF0"/>
<path d="M66.8447 4.85352H68.6643V6.67311H66.8447V4.85352Z" fill="#783CF0"/>
<path d="M62.2363 4.85352H64.0559V6.67311H62.2363V4.85352Z" fill="#783CF0"/>
<path d="M7.1582 4.85352H56.0488V6.67311H7.1582V4.85352Z" fill="#783CF0"/>
<path d="M51.9242 44.8867L53.3802 43.4306L52.0457 42.0962L47.1932 46.9488L42.7042 42.3394L51.9242 33.1193C54.7146 33.726 57.6261 32.8767 59.6883 30.9356C61.9935 28.6303 62.7213 25.2337 61.6294 22.3223L61.1443 20.9878L57.6262 24.5059L54.8358 24.2633L54.5932 21.473L58.1113 17.9549L56.6559 17.3482C55.6856 16.984 54.7147 16.7415 53.6229 16.7415C51.4391 16.7415 49.377 17.5907 47.7995 19.1677C45.7373 21.2299 45.0091 24.1418 45.6158 26.9317L36.3957 36.1518L29.3594 28.9945L30.0871 25.4764L22.9292 19.7746L18.9259 23.7779L24.6277 30.9358L28.1458 30.2081L35.1822 37.2444L25.9621 46.4645C23.1717 45.8577 20.2602 46.707 18.198 48.6482C15.8928 50.9535 15.165 54.4716 16.3784 57.5041L16.8636 58.8386L20.3817 55.3205L23.172 55.563L23.4146 58.3534L19.8965 61.8715L21.231 62.3567C22.0802 62.7208 23.0506 62.8418 24.0213 62.8418C26.2051 62.8418 28.2672 61.9925 29.8447 60.4156C31.9069 58.3534 32.6351 55.4415 32.0284 52.6515L41.2485 43.4314L45.8585 48.0414L41.0059 52.894L42.3403 54.2284L43.7963 52.7724L53.7441 62.7202C54.836 63.8121 56.1704 64.4187 57.7475 64.4187C59.2035 64.4187 60.6589 63.812 61.7508 62.7202C63.9346 60.5365 63.9346 56.8969 61.7508 54.7131L51.9242 44.8867ZM25.3554 28.9944L21.3521 24.0203L23.0506 22.3218L28.0247 26.3251L27.5395 28.6304L25.3554 28.9944ZM30.3289 52.7722C31.0567 55.0775 30.4505 57.5039 28.752 59.2018C27.4175 60.5362 25.4764 61.264 23.5352 61.0214L25.4764 59.0803L24.9912 53.8635L19.7745 53.3784L17.7123 55.4406C17.4697 53.4995 18.0764 51.4373 19.5319 49.9813C21.2304 48.2828 23.6567 47.676 25.9614 48.4043L26.4466 48.5258L47.6771 27.2953L47.5561 26.9317C46.8283 24.6265 47.4345 22.2001 49.133 20.5022C50.5891 19.0462 52.6511 18.44 54.5924 18.6826L52.5302 20.7448L53.0153 25.9615L58.2321 26.4467L60.1732 24.5056C60.4158 26.4467 59.688 28.3878 58.3536 29.7223C56.6551 31.4208 54.2287 32.0276 51.924 31.2993L51.4389 31.1777L30.0859 52.2871L30.3289 52.7722ZM60.5363 61.5071C59.8086 62.2348 58.8378 62.5989 57.8675 62.5989C56.8972 62.5989 55.9264 62.2348 55.1987 61.5071L45.2509 51.5593L50.7102 46.0999L60.658 56.0477C61.9925 57.6252 61.9923 60.0516 60.5363 61.5071Z" fill="#783CF0"/>
<path d="M57.0638 59.286L55.7773 57.9995L57.0638 56.7129L58.3504 57.9995L57.0638 59.286Z" fill="#783CF0"/>
<path d="M53.2646 55.4551L54.5512 54.168L55.8383 55.4545L54.5518 56.7417L53.2646 55.4551Z" fill="#783CF0"/>
</svg>
