<svg width="70" height="70" viewBox="0 0 70 70" fill="none" xmlns="http://www.w3.org/2000/svg">
<path d="M45.2045 15.8457C42.8054 15.8457 40.5737 16.7833 38.8887 18.4569C37.2038 20.1419 36.2666 22.3736 36.2666 24.7615C36.2666 27.1494 37.1929 29.4036 38.8887 31.0885C40.6297 32.8295 42.9169 33.6998 45.2045 33.6998C47.4921 33.6998 49.7797 32.8295 51.5202 31.0885C55.0018 27.5956 54.9905 21.9272 51.5202 18.4569C49.8352 16.772 47.5923 15.8457 45.2045 15.8457ZM50.0248 29.5943C47.358 32.2502 43.0396 32.2502 40.3835 29.5943C39.1002 28.2997 38.3861 26.5926 38.3861 24.7627C38.3861 22.9436 39.1002 21.2365 40.3835 19.9532C41.6668 18.6699 43.3739 17.9557 45.193 17.9557H45.2043C47.0235 17.9557 48.7418 18.6585 50.0251 19.9532C52.6806 22.6199 52.6806 26.9383 50.0246 29.5944L50.0248 29.5943Z" fill="#783CF0"/>
<path d="M69.9886 1.06034C69.9886 0.479818 69.5088 0 68.9283 0H60.8827C58.9413 0 54.9352 0.144877 49.9136 1.13842C38.7548 3.32538 24.0696 9.3961 16.8942 25.8001C14.2941 25.3423 11.6048 26.1684 9.70808 28.0652L0.312533 37.472C0.033577 37.751 -0.067111 38.1414 0.0448738 38.5211C0.156354 38.8894 0.457909 39.1797 0.83704 39.2578L13.5693 42.0807L14.3614 42.8729C12.1071 43.2525 9.98697 44.3123 8.33593 45.964C4.21794 50.0595 0.98189 67.1879 0.836566 67.9138C0.769782 68.2596 0.881261 68.6058 1.12682 68.8622C1.32768 69.063 1.59534 69.1745 1.8743 69.1745C1.94108 69.1745 2.00838 69.1632 2.06386 69.1524C2.78925 69.0183 19.9065 65.7824 24.0242 61.6648C25.6759 60.0131 26.7356 57.9042 27.1153 55.6501L27.8962 56.4309L30.7305 69.1631C30.8199 69.5428 31.0988 69.8438 31.4672 69.9553C31.5673 69.9887 31.668 70 31.7682 70C32.0472 70 32.3148 69.8885 32.5157 69.6877L41.9112 60.2921C43.8193 58.3841 44.634 55.6947 44.1763 53.0947C60.5907 45.942 66.6614 31.2461 68.859 20.0871C69.8855 14.8758 69.9974 10.6802 69.9974 9.11798L69.9985 1.06112L69.9886 1.06034ZM60.8828 2.12016H67.8679L67.8685 9.10584C67.8685 10.4004 67.7904 13.5917 67.1318 17.6872L52.3022 2.85625C56.3863 2.19765 59.5889 2.11956 60.883 2.11956L60.8828 2.12016ZM11.2031 29.5594C12.5085 28.254 14.305 27.6401 16.0907 27.8184C14.7072 31.4787 13.725 35.4956 13.1892 39.814L3.16844 37.5931L11.2031 29.5594ZM18.2556 46.7773L23.21 51.7318C23.0425 52.0554 22.8303 52.3565 22.5961 52.5912C21.8486 53.2272 18.9697 54.4545 14.1155 55.8719C15.5328 51.0177 16.7714 48.1166 17.374 47.4134C17.6309 47.1565 17.9319 46.9335 18.2556 46.7773ZM22.5406 60.1682C19.7957 62.913 8.81569 65.6137 3.23551 66.763C4.38473 61.1833 7.08535 50.2039 9.83033 47.4579C11.5153 45.773 13.8138 44.8246 16.1795 44.8246H16.3022L16.7153 45.2376C16.4029 45.4498 16.1014 45.6841 15.8224 45.9743C14.2154 47.8376 12.3074 54.3994 11.5595 57.1331C11.4593 57.5014 11.5595 57.8919 11.8385 58.1595C12.0393 58.3604 12.307 58.4719 12.5859 58.4719C12.6753 58.4719 12.7755 58.4606 12.8649 58.4385C15.5989 57.691 22.1377 55.7825 24.035 54.1535C24.3026 53.8858 24.5369 53.5843 24.749 53.2719L25.1621 53.6849C25.1965 56.0953 24.2591 58.4385 22.5406 60.1682ZM40.4174 58.7846L32.3831 66.8189L30.1515 56.7981C34.4586 56.2623 38.476 55.2806 42.1363 53.8966C42.3366 55.671 41.7227 57.4788 40.4174 58.7848V58.7846ZM42.5375 51.4753C38.5649 53.127 34.1015 54.2315 29.2585 54.778L15.1982 40.7073C15.7448 35.8644 16.8499 31.401 18.4902 27.4282C18.5015 27.4061 18.5123 27.3722 18.5236 27.3501C25.1075 11.5157 39.0228 5.53445 49.7675 3.325L66.6619 20.2194C64.441 30.9877 58.4377 44.9363 42.5369 51.4752L42.5375 51.4753Z" fill="#783CF0"/>
<path d="M27.6959 26.8371C27.2828 26.4241 26.6134 26.4241 26.2004 26.8371C25.7874 27.2502 25.7874 27.9196 26.2004 28.3326L41.656 43.7882C41.8682 44.0004 42.1358 44.1005 42.4035 44.1005C42.6712 44.1005 42.9501 44.0004 43.151 43.7882C43.564 43.3752 43.564 42.7058 43.151 42.2927L27.6959 26.8371Z" fill="#783CF0"/>
<path d="M27.1938 34.0012C26.7807 33.5881 26.1113 33.5881 25.6983 34.0012C25.2853 34.4142 25.2853 35.0836 25.6983 35.4966L34.4805 44.2788C34.6927 44.491 34.9603 44.5911 35.228 44.5911C35.4956 44.5911 35.7746 44.491 35.9754 44.2788C36.3885 43.8658 36.3885 43.1964 35.9754 42.7833L27.1938 34.0012Z" fill="#783CF0"/>
</svg>
