<svg width="141" height="141" viewBox="0 0 141 141" fill="none" xmlns="http://www.w3.org/2000/svg">
<path d="M55.9461 131.228L56.2229 129.577L59.5071 130.127L61.2989 119.44L63.3227 119.78L61.5309 130.467L64.8328 131.02L64.556 132.671L55.9461 131.228Z" fill="white"/>
<path d="M42.919 115.235L47.5186 117.741L49.5318 115.927L51.4127 116.952L41.4829 125.808L39.3965 124.672L41.455 111.526L43.3517 112.56L42.919 115.235ZM42.6239 116.98L41.6282 123.059L46.2118 118.935L42.6239 116.98Z" fill="white"/>
<path d="M33.4454 106.565L30.5054 103.524L31.696 102.373L36.0623 106.89L27.0679 115.585L25.6417 114.109L33.4454 106.565Z" fill="white"/>
<path d="M24.6783 91.1006L21.9134 97.9662L26.8921 95.4069L27.8303 97.2318L16.7043 102.951L15.7661 101.126L20.8408 98.5176L13.5441 96.8041L12.3673 94.5148L20.4236 96.4856L23.4521 88.7153L24.6783 91.1006Z" fill="white"/>
<path d="M7.8968 63.5721L9.56919 63.6456L9.42302 66.9724L20.2486 67.448L20.1585 69.4981L9.33294 69.0224L9.18598 72.3672L7.51359 72.2937L7.8968 63.5721Z" fill="white"/>
<path d="M23.993 51.4086C23.5437 52.4824 22.8801 53.369 22.0021 54.0683C21.1177 54.7519 20.116 55.1718 18.997 55.328C17.8716 55.4685 16.7443 55.3026 15.6151 54.8301C14.486 54.3577 13.5819 53.6737 12.9029 52.7783C12.2286 51.8717 11.8299 50.8659 11.7069 49.7608C11.5775 48.64 11.7374 47.5427 12.1867 46.4689C12.6406 45.384 13.3098 44.4998 14.1942 43.8162C15.0721 43.1168 16.0683 42.6946 17.1827 42.5495C18.297 42.4044 19.4188 42.568 20.548 43.0405C21.6771 43.5129 22.5867 44.1992 23.2768 45.0993C23.9557 45.9947 24.36 47.0029 24.4894 48.1237C24.6124 49.2288 24.4469 50.3238 23.993 51.4086ZM22.3491 50.7208C22.6687 49.957 22.7819 49.2044 22.6889 48.463C22.5847 47.717 22.2811 47.0436 21.778 46.4429C21.2685 45.8265 20.5875 45.3399 19.7351 44.9833C18.8827 44.6266 18.0637 44.4856 17.278 44.5601C16.497 44.6236 15.8098 44.8824 15.2166 45.3366C14.6233 45.7908 14.1668 46.3998 13.8472 47.1637C13.5276 47.9275 13.4144 48.6801 13.5074 49.4215C13.6005 50.1628 13.8963 50.8394 14.3948 51.4512C14.8979 52.052 15.5756 52.5307 16.428 52.8873C17.2804 53.244 18.1027 53.3929 18.8947 53.334C19.6804 53.2595 20.3754 52.9975 20.9798 52.5479C21.573 52.0937 22.0295 51.4847 22.3491 50.7208Z" fill="white"/>
<path d="M42.1604 25.7198L37.8577 28.7069L38.576 31.3197L36.8164 32.5413L33.3538 19.6941L35.3056 18.3391L46.1317 26.0744L44.3574 27.3061L42.1604 25.7198ZM40.7326 24.6731L35.7462 21.0571L37.3762 27.0033L40.7326 24.6731Z" fill="white"/>
<path d="M61.0785 14.3538C61.0186 13.1313 61.2465 12.0208 61.7623 11.0224C62.2901 10.0234 63.0262 9.2304 63.9706 8.64349C64.9264 8.04402 65.9856 7.71581 67.1482 7.65887C68.4786 7.59371 69.6754 7.86549 70.7384 8.47421C71.8129 9.07037 72.6132 9.95628 73.1393 11.1319L70.6762 11.2526C70.3203 10.6092 69.8468 10.1398 69.2557 9.84439C68.6645 9.54896 67.9914 9.41973 67.2363 9.45671C66.4093 9.49722 65.6812 9.7191 65.0522 10.1224C64.4232 10.5256 63.9399 11.0839 63.6024 11.7973C63.2769 12.5101 63.1367 13.3279 63.1819 14.2508C63.2271 15.1737 63.4466 15.9739 63.8402 16.6515C64.2458 17.3284 64.7816 17.8428 65.4476 18.1947C66.113 18.5345 66.8592 18.6842 67.6862 18.6437C68.4413 18.6067 69.0986 18.4123 69.6581 18.0605C70.2175 17.7088 70.6429 17.1953 70.9342 16.5203L73.3973 16.3996C72.9886 17.6211 72.2787 18.581 71.2676 19.2793C70.2685 19.977 69.1038 20.3584 67.7734 20.4236C66.5988 20.4811 65.5129 20.264 64.5156 19.7722C63.5178 19.2684 62.7074 18.5451 62.0846 17.6025C61.4737 16.6592 61.1383 15.5763 61.0785 14.3538Z" fill="white"/>
<path d="M86.0259 22.9755C84.9257 22.5953 83.9989 21.9892 83.2452 21.1574C82.5069 20.3182 82.0243 19.3451 81.7974 18.2383C81.5858 17.124 81.6799 15.9885 82.0798 14.8316C82.4796 13.6748 83.1048 12.7291 83.9554 11.9947C84.8174 11.2642 85.7959 10.8025 86.8909 10.6097C88.0013 10.4094 89.1065 10.4994 90.2067 10.8797C91.3181 11.2638 92.2431 11.8755 92.9814 12.7148C93.735 13.5466 94.2196 14.514 94.4351 15.6169C94.6506 16.7198 94.5585 17.8497 94.1586 19.0065C93.7588 20.1634 93.1316 21.1147 92.2771 21.8605C91.4265 22.5949 90.4461 23.0622 89.3357 23.2625C88.2406 23.4554 87.1374 23.3597 86.0259 22.9755ZM86.608 21.2913C87.3906 21.5618 88.1489 21.6271 88.8828 21.4872C89.6207 21.3359 90.2735 20.9902 90.8411 20.45C91.424 19.9023 91.8663 19.1919 92.1682 18.3186C92.47 17.4453 92.5588 16.6189 92.4346 15.8396C92.3217 15.0642 92.0198 14.3948 91.5289 13.8316C91.038 13.2683 90.4012 12.8514 89.6186 12.5809C88.8361 12.3104 88.0778 12.2451 87.3438 12.385C86.6099 12.5249 85.9534 12.863 85.3744 13.3993C84.8068 13.9395 84.3721 14.6463 84.0702 15.5196C83.7684 16.3929 83.6719 17.223 83.7809 18.0097C83.9051 18.789 84.2108 19.466 84.6978 20.0406C85.1887 20.6039 85.8254 21.0208 86.608 21.2913Z" fill="white"/>
<path d="M106.445 35.4877L104.882 34.1584L106.23 23.0421L100.178 30.1588L98.615 28.8294L106.731 19.2857L108.294 20.615L106.957 31.7176L112.997 24.6146L114.561 25.944L106.445 35.4877Z" fill="white"/>
<path d="M113.08 44.8726C112.652 44.1493 112.392 43.4251 112.299 42.7C112.215 41.9688 112.308 41.3006 112.578 40.6954C112.848 40.0902 113.293 39.6046 113.913 39.2385L115.029 41.1296C114.589 41.4454 114.313 41.852 114.203 42.3493C114.098 42.8568 114.22 43.4052 114.568 43.9942C114.927 44.6039 115.353 44.9938 115.843 45.164C116.344 45.3281 116.827 45.2729 117.292 44.9983C117.654 44.7848 117.885 44.5025 117.984 44.1512C118.089 43.8104 118.109 43.4431 118.044 43.0496C117.985 42.6664 117.863 42.1531 117.678 41.5096C117.45 40.6971 117.297 40.0138 117.221 39.4597C117.161 38.9097 117.241 38.3608 117.461 37.8129C117.681 37.265 118.127 36.7927 118.798 36.3962C119.418 36.0302 120.052 35.8649 120.701 35.9004C121.349 35.9359 121.961 36.1594 122.539 36.571C123.116 36.9826 123.621 37.5553 124.055 38.289C124.671 39.3327 124.911 40.3407 124.774 41.3132C124.654 42.2899 124.16 43.0829 123.294 43.6921L122.141 41.739C122.515 41.4762 122.741 41.0919 122.819 40.5862C122.897 40.0805 122.771 39.5486 122.441 38.9906C122.142 38.4842 121.769 38.1471 121.322 37.9793C120.874 37.8115 120.408 37.8709 119.922 38.1576C119.591 38.3529 119.375 38.6127 119.274 38.9371C119.19 39.2658 119.177 39.6218 119.236 40.005C119.295 40.3882 119.411 40.8912 119.583 41.5139C119.808 42.3429 119.953 43.0375 120.019 43.5977C120.091 44.1683 120.012 44.7306 119.782 45.2847C119.568 45.8429 119.12 46.3234 118.438 46.726C117.89 47.0493 117.285 47.2045 116.622 47.1916C115.966 47.1889 115.32 46.9919 114.685 46.6005C114.066 46.2133 113.531 45.6373 113.08 44.8726Z" fill="white"/>
<path d="M130.779 54.7428L122.965 56.331C122.036 56.5198 121.385 56.9031 121.013 57.4809C120.643 58.0704 120.546 58.8002 120.723 59.6704C120.903 60.5524 121.276 61.1866 121.845 61.5732C122.416 61.9715 123.165 62.0762 124.094 61.8874L131.909 60.2992L132.317 62.3101L124.538 63.8911C123.539 64.0943 122.648 64.0488 121.866 63.7547C121.083 63.4606 120.448 62.9837 119.959 62.3239C119.469 61.6641 119.135 60.8933 118.956 60.0113C118.777 59.1293 118.783 58.2891 118.976 57.4907C119.171 56.7041 119.573 56.0286 120.181 55.4642C120.788 54.8999 121.592 54.5161 122.592 54.313L130.371 52.7319L130.779 54.7428Z" fill="white"/>
<path d="M121.587 74.953L121.153 79.1606L119.505 78.9905L120.151 72.7417L132.595 74.0268L132.384 76.068L121.587 74.953Z" fill="white"/>
<path d="M126.553 97.4564L125.002 96.825L126.258 93.741L116.223 89.6538L116.997 87.7534L127.032 91.8405L128.295 88.7398L129.845 89.3712L126.553 97.4564Z" fill="white"/>
<path d="M108.098 106.668L111.55 102.729L110.221 100.367L111.633 98.7564L118.101 110.384L116.535 112.171L104.159 107.285L105.583 105.661L108.098 106.668ZM109.737 107.338L115.45 109.64L112.43 104.265L109.737 107.338Z" fill="white"/>
<path d="M89.5717 116.589L91.3735 115.607L101.265 120.856L96.795 112.653L98.5968 111.671L104.591 122.672L102.789 123.654L92.9065 118.42L97.3677 126.608L95.5658 127.59L89.5717 116.589Z" fill="white"/>
<path d="M76.6156 132.528L76.3388 130.877L79.6229 130.326L77.8311 119.639L79.8548 119.3L81.6467 129.987L84.9486 129.433L85.2254 131.084L76.6156 132.528Z" fill="white"/>
</svg>
