<svg width="40" height="34" viewBox="0 0 40 34" fill="none" xmlns="http://www.w3.org/2000/svg">
<path d="M39.3276 5.24271C39.1166 4.94473 38.656 4.67637 38.3369 4.61351L20.272 0.95855C19.4384 0.801824 18.6178 1.29641 18.4143 2.19829C18.2325 3.00514 18.8433 3.89451 19.6544 4.05649L34.1456 6.97656L1.0439 30.4133C0.331968 30.9173 0.16394 31.9027 0.667672 32.6142C1.17174 33.3261 2.1571 33.4941 2.86856 32.9904L35.9702 9.55368L33.9108 24.192C33.7941 25.0108 34.4351 25.8465 35.2512 25.9785C36.1126 26.1182 36.9216 25.4786 37.0376 24.6381L39.5914 6.38532C39.684 5.87376 39.5368 5.54869 39.3276 5.24271Z" fill="#8C52FF"/>
</svg>
